<!--?xml version="1.0" encoding="utf-8"?-->
<!-- Generator: Adobe Illustrator 18.1.1, SVG Export Plug-In . SVG Version: 6.00 Build 0)  -->

<svg version="1.1" id="_x32_" xmlns="http://www.w3.org/2000/svg" xmlns:xlink="http://www.w3.org/1999/xlink" x="0px" y="0px" viewBox="0 0 512 512" style="width: 256px; height: 256px; opacity: 1;" xml:space="preserve">
<style type="text/css">
	.st0{fill:#4B4B4B;}
</style>
<g>
	<path class="st0" d="M508.44,376.919L370.877,110.05c-6.987-13.56-21.07-21.983-36.324-21.716
		c-15.254,0.268-29.034,9.169-35.541,22.968l-55.682,112.46c-3.747,7.926-11.461,13.237-20.196,13.892
		c-8.745,0.671-17.168-3.407-22.074-10.67l-28.076-42.748c-7.861-11.655-21.264-18.337-35.302-17.61
		c-14.048,0.728-26.677,8.763-33.296,21.172L3.773,376.523c-5.302,9.942-4.999,21.927,0.801,31.583
		c5.789,9.656,16.228,15.566,27.487,15.566H479.94c11.184,0,21.559-5.826,27.376-15.372
		C513.135,398.744,513.558,386.86,508.44,376.919z" style="fill: rgb(233, 160, 42);"></path>
</g>
</svg>
