<!--?xml version="1.0" encoding="utf-8"?-->
<!-- Generator: Adobe Illustrator 18.1.1, SVG Export Plug-In . SVG Version: 6.00 Build 0)  -->

<svg version="1.1" id="_x32_" xmlns="http://www.w3.org/2000/svg" xmlns:xlink="http://www.w3.org/1999/xlink" x="0px" y="0px" viewBox="0 0 512 512" style="width: 256px; height: 256px; opacity: 1;" xml:space="preserve">
<style type="text/css">
	.st0{fill:#4B4B4B;}
</style>
<g>
	<path class="st0" d="M488.911,22.065c-30.94-24.978-98.487-8.435-140.344,43.421c-23.979,29.695-26.812,57.392-25.797,87.856
		c0.532,16.445,7.371,29.614-0.508,39.375l-60.078,71.904l-51.208-61.29c-7.879-9.746-5.372-21.571-3.473-32.938
		c3.374-20.228,3.112-56.556-20.113-84.417c-23.225-27.844-77.751-75.638-82.959-80.617c-5.209-4.979-13.284-7.812-19.868-2.506
		c-6.584,5.291-3.701,11.596,1.49,18.016l66.515,82.403c5.666,7.026,4.75,13.266-0.77,17.739
		c-5.045,4.061-13.644,4.127-17.641-0.819L65.565,35.217c-5.569-6.912-15.151-6.453-20.753-1.933
		c-5.601,4.521-8.058,13.775-2.489,20.703l68.595,84.974c3.996,4.946,2.112,13.332-2.932,17.394
		c-5.52,4.471-11.825,4.029-17.492-2.981L23.978,70.973c-5.176-6.437-10.728-10.565-17.313-5.258
		c-6.568,5.323-5.487,13.808-1.72,19.95c3.768,6.142,38.982,69.528,61.29,98.11c22.324,28.565,57.769,36.508,78.259,37.475
		c11.514,0.54,23.602,0.573,31.464,10.335l54.944,70.478l-128.42,153.7c-4.488,5.389-6.642,12.35-5.954,19.327
		c0.688,6.977,4.144,13.398,9.599,17.788l3.341,2.703c5.454,4.406,12.448,6.436,19.417,5.634c6.953-0.818,13.316-4.372,17.616-9.909
		l115.971-148.754l124.267,159.384c4.308,5.503,10.646,9.074,17.623,9.893c6.961,0.802,13.955-1.229,19.41-5.635l3.341-2.686
		c5.454-4.406,8.91-10.826,9.599-17.788c0.688-6.994-1.474-13.938-5.962-19.327L293.764,302.423l63.5-81.453
		c7.87-9.762,22.185-5.863,38.384-8.812c29.99-5.422,56.466-14.053,80.429-43.748C517.934,116.538,519.85,47.026,488.911,22.065z" style="fill: rgb(233, 160, 42);"></path>
</g>
</svg>
