<?xml version="1.0" encoding="UTF-8"?>
<svg id="_レイヤー_2" data-name="レイヤー 2" xmlns="http://www.w3.org/2000/svg" viewBox="0 0 488.03 274.2">
  <defs>
    <style>
      .cls-1 {
        fill: #fff;
      }

      .cls-2 {
        fill: #e09c2e;
      }

      .cls-3 {
        opacity: .8;
      }

      .cls-4 {
        fill: #5e5333;
      }

      .cls-5 {
        fill: none;
        stroke: #5e5333;
        stroke-miterlimit: 10;
        stroke-width: 5px;
      }

      .cls-6 {
        opacity: .7;
      }
    </style>
  </defs>
  <g id="_レイヤー_1-2" data-name="レイヤー 1">
    <g class="cls-3">
      <ellipse class="cls-2" cx="355.98" cy="132.58" rx="26.3" ry="25.36" transform="translate(10.52 290.55) rotate(-45)"/>
    </g>
    <g class="cls-3">
      <ellipse class="cls-2" cx="267.85" cy="138.44" rx="21.87" ry="21.09" transform="translate(-31.06 98.93) rotate(-19.8)"/>
    </g>
    <g class="cls-3">
      <ellipse class="cls-2" cx="131.85" cy="152.44" rx="21.87" ry="21.09" transform="translate(-34.91 39.25) rotate(-14.98)"/>
    </g>
    <rect class="cls-4" x="136.36" y="142.1" width="23.6" height="53.56" transform="translate(-32.81 35.75) rotate(-12.4)"/>
    <g>
      <path class="cls-1" d="M15.55,245.44c12.31-6.01,29.43-13.84,50.34-21.73,91.08-34.38,167.42-37.3,185.16-37.77,53.52-1.42,129.03-3.43,205.5,40,12.85,7.3,23.01,14.34,30,19.5"/>
      <path class="cls-5" d="M15.55,245.44c12.31-6.01,29.43-13.84,50.34-21.73,91.08-34.38,167.42-37.3,185.16-37.77,53.52-1.42,129.03-3.43,205.5,40,12.85,7.3,23.01,14.34,30,19.5"/>
    </g>
    <g>
      <path class="cls-4" d="M102.09,53.34l1.75-3.15c1.65,1.57,3.49,2.08,5.53,1.53,1.33-.36,2.36-1.25,3.09-2.65.72-1.41,1.02-3.1.89-5.07l-1.14-16.99c-.6.07-1.02.13-1.24.19-1.87.5-3.24,1.59-4.13,3.25-.89,1.67-1.06,3.49-.53,5.47l-2.86,2.5c-.61-3.22-.02-6.02,1.8-8.39,1.81-2.37,4.65-4.08,8.51-5.12l1.37-.37c3.67,5.26,6.81,10.84,9.43,16.74l6.28-20.98,3.52-1.4.18,5.8.98,14.61c.1,1.3.24,2.31.44,3.05.27,1,1.01,1.33,2.22,1,.6-.16,1.39-.44,2.36-.84l.07,1.15-7.94,3.93-1.57-23.28-6.59,21.73-1.67.74-.13-.49c-1.19-4.42-3.76-9.62-7.69-15.6l.48,7.3c.61,9-1.94,14.27-7.64,15.81-1.99.54-3.91.38-5.77-.46Z"/>
      <path class="cls-4" d="M163.88,30.23l-.31.06c-.72,3.14-1.81,5.81-3.27,7.99-1.46,2.19-2.99,3.44-4.59,3.76-2.42.48-3.94-.79-4.54-3.82-.67-3.34,0-6.88,2.04-10.62,2.09-3.87,5.13-6.21,9.11-7,1.64-.33,3.38-.6,5.2-.82l-.22,5.35.03,8.85c0,1.39.04,2.27.12,2.67.14.72.56,1.02,1.23.88,1.15-.23,2.61-1.83,4.38-4.82v1.67c-1.97,3.2-3.96,5.01-5.97,5.41-1.67.33-2.68-.37-3.02-2.1-.11-.58-.17-1.58-.17-3.01v-4.43ZM163.89,23.06c-1.58-.35-3.07-.39-4.48-.11-2.09.42-3.5,2.07-4.22,4.97-.85,3.42-1.02,6.38-.52,8.87.36,1.8,1.07,2.6,2.13,2.39.99-.2,2.2-1.52,3.64-3.96,1.44-2.44,2.59-5.14,3.46-8.09v-4.07Z"/>
      <path class="cls-4" d="M174.13,49.31l1.99-2.83c1.27.41,2.54.52,3.81.33,2.96-.43,4.57-3.16,4.83-8.2l.72-13.88c.06-1.76.05-2.93-.03-3.5-.14-.97-.58-1.41-1.33-1.3-.53.08-1.44.42-2.73,1.02l.07-1.09,8.08-4.02-.5,5.81-.23,4.37.3-.04c.9-3.11,2.13-5.72,3.7-7.81s3.16-3.26,4.78-3.49c2.47-.36,3.93.99,4.37,4.05.52,3.58-.4,7.18-2.76,10.79s-5.12,5.65-8.29,6.11c-.32.05-1,.08-2.01.1-.13,0-.33.01-.6.02-.37,3.88-1.54,6.98-3.51,9.29-1.97,2.32-4.62,3.72-7.96,4.2-.83.12-1.74.15-2.71.07ZM188.43,33.22c1.54.43,3.04.54,4.49.32,2.1-.3,3.59-1.88,4.46-4.73,1.04-3.37,1.37-6.32,1.01-8.83-.26-1.82-.94-2.65-2.01-2.5-.99.14-2.26,1.4-3.82,3.76-1.56,2.37-2.87,5-3.91,7.91l-.21,4.06Z"/>
      <path class="cls-4" d="M224.68,25.94l-.16,1.64c-2.48,3.08-4.71,4.72-6.69,4.92-1.66.16-2.57-.65-2.75-2.43-.07-.73-.05-1.73.07-2.99l1.2-12.31c.42-4.3,1.68-7.75,3.78-10.33,2.1-2.58,4.81-4.04,8.15-4.37,1.17-.12,2.23-.1,3.19.05l-2.15,2.74c-1.42-.48-2.61-.68-3.59-.58-1.86.18-3.18,1-3.98,2.44-.8,1.45-1.39,4.09-1.76,7.93l-1.38,14.09c-.14,1.37-.18,2.26-.14,2.66.07.73.45,1.07,1.14,1,.78-.08,2.19-1.27,4.23-3.56.16-.18.44-.49.85-.91Z"/>
      <path class="cls-4" d="M249.57,25.07l-.19,1.37c-3.59,2.79-6.7,4.25-9.32,4.38-1.66.08-3.04-.43-4.14-1.54-1.09-1.11-1.69-2.59-1.78-4.44-.17-3.3.94-6.46,3.32-9.5,2.38-3.03,5-4.62,7.87-4.77,1.04-.05,1.9.25,2.58.92.68.67,1.05,1.56,1.1,2.69.12,2.24-.93,4.23-3.14,5.96-2.21,1.73-4.91,2.67-8.09,2.84l.02.79c.17,3.42,1.51,5.06,4.02,4.93,2.16-.11,4.75-1.32,7.75-3.63ZM237.76,21.9c2.61-.34,4.62-1.12,6.04-2.34,1.42-1.22,2.08-2.73,1.99-4.54-.09-1.79-.79-2.65-2.09-2.59-1.4.07-2.71,1.07-3.93,3.01s-1.89,4.09-2.01,6.46Z"/>
      <path class="cls-4" d="M288.68,29.84l.11-2.39c.05-4.62-.33-8.28-1.15-10.96s-1.94-4.03-3.38-4.05c-1.46-.02-3.03,1.37-4.69,4.16l.54-2.59c2.15-2.79,4.15-4.17,5.98-4.15,4.07.04,6.05,5.19,5.94,15.45v.97s1.45-1.72,1.45-1.72c4.32-5.11,6.5-8.84,6.52-11.18.01-1.1-.36-2.08-1.13-2.95l3.76-.38c.56.86.84,1.64.84,2.35-.01.98-.42,2.09-1.24,3.31-.82,1.22-2.58,3.38-5.29,6.47l-6.37,7.26-1.89.42Z"/>
      <path class="cls-4" d="M326.61,25.64l-.42,1.61c-2.74,2.58-5.12,3.81-7.16,3.68-1.68-.11-2.47-1.04-2.36-2.81.04-.6.24-1.57.59-2.92l1.6-6.03c.44-1.71.68-2.85.71-3.42.06-.98-.29-1.5-1.05-1.55-.53-.03-1.48.11-2.86.42l.28-1.06,8.76-2.26-1.69,5.53-2.28,8.56c-.36,1.34-.55,2.2-.57,2.57-.05.76.27,1.16.96,1.21,1.16.08,2.98-1.1,5.48-3.52ZM321.28,8.02l1.33-2.31,5.15-2.91-1.72,3.13-4.77,2.09Z"/>
      <path class="cls-4" d="M346.5,27.75l-.5,1.57c-3.07,2.49-5.6,3.62-7.58,3.39-1.65-.19-2.38-1.18-2.17-2.96.08-.73.32-1.7.71-2.91l3.78-11.77c1.32-4.12,3.28-7.22,5.88-9.29s5.56-2.93,8.89-2.54c1.17.13,2.2.38,3.1.73l-2.68,2.22c-1.28-.77-2.41-1.21-3.39-1.33-1.85-.21-3.32.3-4.41,1.54-1.09,1.24-2.22,3.7-3.4,7.38l-4.33,13.48c-.42,1.31-.66,2.17-.7,2.57-.08.73.22,1.14.91,1.22.78.09,2.41-.77,4.89-2.59.19-.14.53-.38,1.02-.71Z"/>
      <path class="cls-4" d="M366.33,31.02l-.58,1.54c-3.2,2.32-5.79,3.31-7.75,2.97-1.64-.28-2.31-1.31-2.01-3.07.12-.73.41-1.68.87-2.87l4.42-11.55c1.55-4.04,3.68-7.02,6.38-8.96,2.71-1.93,5.71-2.62,9.02-2.05,1.16.2,2.18.5,3.06.9l-2.8,2.07c-1.24-.84-2.34-1.35-3.31-1.51-1.84-.31-3.33.12-4.49,1.3-1.16,1.18-2.42,3.57-3.8,7.18l-5.07,13.22c-.49,1.28-.77,2.13-.84,2.53-.12.73.15,1.15.84,1.27.78.13,2.45-.64,5.02-2.31.2-.13.55-.35,1.06-.66Z"/>
      <path class="cls-4" d="M389.95,32.32l-.31-.08c-2,2.53-4.14,4.46-6.4,5.81-2.26,1.34-4.18,1.82-5.76,1.42-2.4-.61-3.21-2.41-2.46-5.41.84-3.3,2.97-6.21,6.41-8.71,3.56-2.59,7.3-3.39,11.23-2.4,1.62.41,3.31.91,5.04,1.49l-2.5,4.73-3.78,8c-.59,1.25-.94,2.07-1.04,2.46-.18.71.06,1.16.73,1.33,1.14.29,3.14-.54,6.03-2.46l-.71,1.51c-3.17,2.04-5.74,2.81-7.72,2.31-1.65-.42-2.26-1.48-1.82-3.2.14-.57.52-1.5,1.14-2.79l1.9-4ZM393.04,25.85c-1.27-1-2.6-1.67-4-2.03-2.07-.52-4.05.37-5.95,2.66-2.24,2.72-3.67,5.32-4.29,7.78-.45,1.78-.15,2.81.89,3.07.98.25,2.64-.42,4.99-2.01,2.35-1.59,4.55-3.52,6.61-5.81l1.75-3.67Z"/>
      <path class="cls-4" d="M406.38,47.01c-1.08-1.14-1.26-2.71-.54-4.7,1.18-3.26,3.65-5.93,7.39-8.01,3.64-2.03,7.37-2.36,11.18-.98.73.26,2.24.89,4.54,1.87l-2.95,4.47-2.17,3.55c-1.13,1.87-1.94,3.26-2.43,4.17-2.02,3.69-3.62,6.18-4.78,7.48-1.16,1.29-2.78,2.38-4.86,3.28-3.05,1.29-6.06,1.39-9.03.31-1.94-.7-3.38-1.65-4.32-2.85-.94-1.19-1.19-2.4-.75-3.61.88-2.42,3.78-4.08,8.7-4.98ZM420.44,42.26l-.26-.1c-2.11,2.17-4.26,3.74-6.46,4.72-2.2.98-4.25,1.29-6.15.91-3.61.95-5.72,2.28-6.34,3.98-.4,1.1-.2,2.24.59,3.4.79,1.17,1.95,2.03,3.49,2.58,1.97.71,3.81.51,5.5-.61,1.7-1.12,3.39-3.26,5.08-6.4l4.56-8.5ZM424.13,36.17c-1.09-1.13-2.29-1.93-3.6-2.41-1.46-.53-2.94-.32-4.43.62-1.18.74-2.46,2.01-3.85,3.79-1.39,1.79-2.34,3.39-2.86,4.83-.56,1.55-.35,2.51.63,2.86,2.17.79,6.19-1.3,12.05-6.27l2.06-3.42Z"/>
      <path class="cls-4" d="M447.87,59.62l-.82,1.11c-4.48.75-7.91.56-10.28-.56-1.5-.71-2.47-1.82-2.91-3.32-.44-1.5-.26-3.08.54-4.75,1.42-2.98,3.89-5.24,7.43-6.79,3.54-1.54,6.6-1.7,9.19-.46.94.45,1.55,1.13,1.83,2.04.28.91.18,1.87-.3,2.89-.96,2.03-2.83,3.28-5.6,3.75-2.77.47-5.59.02-8.47-1.34l-.36.71c-1.47,3.09-1.07,5.17,1.2,6.25,1.96.93,4.81,1.09,8.55.48ZM438.98,51.23c2.46.94,4.6,1.21,6.43.81,1.82-.4,3.13-1.42,3.91-3.06.77-1.62.57-2.71-.61-3.27-1.27-.6-2.9-.34-4.89.78-1.99,1.12-3.6,2.7-4.84,4.74Z"/>
    </g>
    <g>
      <path class="cls-4" d="M57.15,249.81c3.3.68,7.37,1.74,12.21,3.17,1.26-5.07,1.9-9.86,1.92-14.39l3.07.31c-.2,4.83-.94,9.82-2.22,14.95,4.15,1.32,8.02,2.79,11.6,4.42l-1.12,2.85c-2.88-1.42-6.63-2.94-11.26-4.58-2.31,6.85-5.58,12.73-9.83,17.64l-2.6-1.7c3.94-4.31,7.14-9.93,9.61-16.84-4.41-1.31-8.43-2.37-12.07-3.19l.68-2.66Z"/>
      <path class="cls-4" d="M85.99,247.07l29.06-8.73.8,2.66-29.06,8.73-.8-2.66Z"/>
      <path class="cls-4" d="M118.34,227.74l22.15-5.32,3.96,2.28c1.3,6.93.84,12.51-1.39,16.73-1.4,2.65-3.53,5.01-6.38,7.08-1.62,1.17-3.69,2.39-6.19,3.64l-2.03-2.13c5.88-2.63,9.83-5.86,11.87-9.68,2.07-3.91,2.43-9.05,1.07-15.42l-22.44,5.39-.62-2.56ZM144.09,215.15c.79-.19,1.58-.14,2.39.15,1.41.52,2.29,1.5,2.64,2.95.26,1.09.09,2.14-.51,3.14-.61.99-1.47,1.62-2.6,1.89-.63.15-1.26.15-1.9-.01-.72-.18-1.35-.51-1.89-1.01-.62-.59-1.03-1.28-1.23-2.09-.16-.66-.14-1.34.05-2.05s.54-1.31,1.03-1.81c.56-.58,1.23-.96,2.02-1.15ZM144.5,216.93c-.41.1-.78.31-1.1.62-.63.61-.83,1.35-.63,2.21.14.58.45,1.04.95,1.38.58.39,1.21.51,1.89.34.38-.09.71-.27.99-.53.71-.62.95-1.38.73-2.29-.16-.65-.52-1.15-1.1-1.49-.53-.32-1.11-.4-1.74-.25Z"/>
      <path class="cls-4" d="M159.28,215.93l2.8-.5,1.09,6.05c.67,3.7,1.04,6.56,1.13,8.58.1,2.55-.1,4.72-.62,6.49-.88,3.06-2.57,5.75-5.07,8.07l-2.3-1.85c2.75-2.72,4.37-5.64,4.85-8.75.43-2.66.16-6.64-.79-11.93l-1.11-6.16ZM167.72,213.4l2.8-.5,4.53,25.19c2.25-1.59,4.09-3.59,5.53-5.98,1.72-2.87,2.77-6.15,3.14-9.85l2.56,1.81c-.59,3.98-1.82,7.43-3.69,10.35-1.82,2.82-4.34,5.3-7.59,7.46l-2.42-1.42-4.87-27.04Z"/>
      <path class="cls-4" d="M209.36,234.47c2.7-1.04,4.83-2.41,6.4-4.11,2.1-2.27,2.92-5.32,2.47-9.16-.3-2.53-1.17-4.68-2.61-6.45-1.97-2.46-4.88-3.74-8.74-3.85.11,7.76-.78,14.16-2.66,19.19-.8,2.14-1.64,3.71-2.52,4.71-.95,1.07-2,1.67-3.15,1.81-1.55.18-3.03-.41-4.46-1.77-.77-.72-1.44-1.67-2.02-2.84-.8-1.6-1.32-3.38-1.55-5.32-.4-3.34.18-6.49,1.73-9.45,1.53-2.94,3.68-5.16,6.45-6.66,1.89-1.01,3.97-1.66,6.25-1.93,3.54-.42,6.69.1,9.44,1.57,2.4,1.29,4.21,3.16,5.43,5.62.74,1.49,1.22,3.13,1.44,4.93.91,7.61-2.46,12.94-10.1,16l-1.79-2.28ZM204.23,211.15c-2.69.49-4.91,1.57-6.64,3.25-2.64,2.54-4.06,5.6-4.27,9.17-.06.92-.03,1.81.07,2.68.33,2.75,1.18,4.82,2.56,6.23.8.81,1.58,1.17,2.32,1.09.85-.1,1.62-.84,2.32-2.21,1.14-2.25,2.05-5.21,2.73-8.88.58-3.09.88-6.87.9-11.33Z"/>
      <path class="cls-4" d="M254.88,203.48l.82,17.08-12.12.58.21,4.42,13.03-.63.11,2.37-13.03.63.24,4.9,15.47-.74.12,2.41-33.43,1.61-.12-2.41,15.19-.73-.24-4.9-12.71.61-.11-2.37,12.71-.61-.21-4.42-11.8.57-.82-17.08,26.69-1.28ZM231.13,206.92l.24,4.97,8.97-.43-.24-4.97-8.97.43ZM231.47,214.15l.25,5.25,8.97-.43-.25-5.25-8.97.43ZM252.42,210.88l-.24-4.97-9.31.45.24,4.97,9.31-.45ZM252.78,218.39l-.25-5.25-9.31.45.25,5.25,9.31-.45Z"/>
      <path class="cls-4" d="M287.63,209.65l7.73.23c.54-2.4,1.04-4.76,1.48-7.09l2.81.56c-.4,2.05-.89,4.26-1.45,6.62l3.13.09c3,.09,5.02.88,6.07,2.36.75,1.05,1.1,2.72,1.03,4.99-.11,3.62-.59,7.02-1.45,10.21-.53,1.98-1.14,3.44-1.84,4.38-.87,1.17-2.03,1.73-3.5,1.69-1.8-.05-3.74-.7-5.8-1.93l.45-2.69c1.99,1.14,3.69,1.73,5.08,1.77.66.02,1.18-.3,1.58-.96.42-.69.81-1.67,1.18-2.95.89-3.01,1.38-6.25,1.49-9.71.06-2-.38-3.3-1.32-3.89-.66-.41-1.7-.63-3.14-.67l-3.6-.11c-.81,3.08-1.46,5.38-1.97,6.91-1.76,5.23-3.94,9.88-6.52,13.94l-2.5-1.48c3.59-5.57,6.32-12.05,8.19-19.45l-7.19-.22.08-2.58ZM315.8,223.76c-1.52-5.94-3.67-11.21-6.45-15.79l2.46-1.19c2.99,5.01,5.24,10.31,6.75,15.87l-2.76,1.11Z"/>
      <path class="cls-4" d="M326.91,213.04l18.61,2.07,1.07,2.17c-4.29,2.54-8.09,4.9-11.4,7.06,1.25-.45,2.37-.62,3.35-.51.86.1,1.56.37,2.08.83.7.61.99,1.42.88,2.43-.02.17-.07.45-.16.81-.3,1.36-.53,2.66-.66,3.91-.07.66,0,1.13.22,1.39.34.4,1.63.73,3.85.98,1.97.22,3.94.31,5.91.29l-.09,2.75c-1.84-.03-3.93-.17-6.28-.43-2.57-.29-4.27-.65-5.08-1.09-.62-.34-1.04-.8-1.24-1.38-.17-.48-.21-1.15-.11-2.01.2-1.84.45-3.33.73-4.48.02-.11.04-.22.05-.33.11-.99-.38-1.55-1.46-1.67-1.33-.15-2.99.37-4.98,1.55-2.41,1.43-5.57,3.81-9.46,7.15l-1.73-2.4c7.05-5.55,14.09-10.5,21.11-14.86l-15.46-1.72.28-2.5ZM344.69,212.04c-4.19-1.9-8.76-3.57-13.74-4.99l1.05-2.27c5.19,1.43,9.81,3.04,13.84,4.83l-1.16,2.44Z"/>
      <path class="cls-4" d="M359.56,211.63c9.88,1.92,19.55,3.63,29,5.15l-.33,2.55c-3.88-.66-7.12-.69-9.69-.09-3.13.74-5.65,2.22-7.54,4.43-1.36,1.59-2.25,3.42-2.68,5.49-.55,2.64.04,4.84,1.75,6.61,1.58,1.62,4.34,3.14,8.28,4.55l-1.17,2.63c-5.07-1.82-8.45-3.89-10.13-6.21-1.7-2.36-2.22-5.13-1.56-8.31.32-1.56.98-3.06,1.98-4.51,2.36-3.44,5.91-5.6,10.64-6.48l-1.67-.27c-4.86-.81-10.09-1.68-15.71-2.59l-1.58-.26.42-2.7ZM381.32,230.25c-.32-2.03-.94-4.12-1.86-6.27l2.25-.38c.94,2.12,1.58,4.19,1.94,6.22l-2.33.43ZM385.96,229.48c-.35-2.19-.97-4.29-1.85-6.31l2.21-.35c.9,1.89,1.54,3.94,1.92,6.16l-2.27.5Z"/>
      <path class="cls-4" d="M397.96,231.36c-2.66,3.52-5.42,6.37-8.28,8.56l-.6-3.03c3.93-2.76,7.33-6.31,10.2-10.65l-5.6-1.82.8-2.46,5.92,1.93,2.42-7.42,2.61.85-2.42,7.42,4.41,1.44-.8,2.46-4.41-1.44-1.14,3.51c1.51,2.4,2.72,4.69,3.62,6.87l-2.24,1.77c-.73-2.08-1.47-3.92-2.23-5.52l-.1-.22-5.28,16.21-2.61-.85,5.74-17.62ZM419.25,230.03l2.42-7.42,2.67.87-2.42,7.42,4.76,1.55-.79,2.42-4.76-1.55-6.33,19.42c-.31.95-.71,1.59-1.21,1.94-.59.42-1.51.43-2.76.02-1.98-.65-3.65-1.28-5-1.89l.28-2.9c1.69.86,3.28,1.53,4.76,2.01.49.16.83.18,1.02.05.18-.13.33-.4.47-.83l6.09-18.7-10.65-3.47.79-2.42,10.65,3.47ZM408.48,244.29c-.12-3.4-.54-6.79-1.24-10.16l2.58-.71c.82,3.64,1.31,7.03,1.46,10.16l-2.8.71Z"/>
    </g>
    <rect class="cls-4" x="56.75" y="162.05" width="13.17" height="57.95" transform="translate(-60.97 32.75) rotate(-19.8)"/>
    <g class="cls-6">
      <ellipse class="cls-2" cx="37.55" cy="185.04" rx="28" ry="27" transform="translate(-60.47 23.67) rotate(-19.8)"/>
    </g>
    <ellipse class="cls-2" cx="242.58" cy="82.44" rx="27.75" ry="26.76" transform="translate(-13.58 87.06) rotate(-19.8)"/>
    <g class="cls-3">
      <ellipse class="cls-2" cx="31.09" cy="123.08" rx="28" ry="27" transform="translate(-39.86 17.81) rotate(-19.8)"/>
    </g>
    <g class="cls-3">
      <ellipse class="cls-2" cx="435.21" cy="155.8" rx="26.17" ry="25.24" transform="translate(-27.05 156.66) rotate(-19.8)"/>
    </g>
    <g class="cls-3">
      <ellipse class="cls-2" cx="161.67" cy="92.17" rx="24.93" ry="24.04" transform="translate(-20.29 53.14) rotate(-17.58)"/>
    </g>
    <ellipse class="cls-2" cx="26.22" cy="150.99" rx="26.25" ry="25.92" transform="translate(-49.6 17.81) rotate(-19.8)"/>
    <g class="cls-3">
      <ellipse class="cls-2" cx="327.09" cy="74.08" rx="28" ry="27" transform="translate(-8.18 65.7) rotate(-11.33)"/>
    </g>
    <ellipse class="cls-2" cx="316.49" cy="90.75" rx="25.9" ry="24.96" transform="translate(-12.1 70.08) rotate(-12.4)"/>
    <ellipse class="cls-2" cx="167.26" cy="129.93" rx="29.57" ry="30.14" transform="translate(-34.97 66.99) rotate(-20.55)"/>
    <ellipse class="cls-2" cx="131.47" cy="95.65" rx="25.43" ry="25.56" transform="translate(-21.33 40.1) rotate(-16.06)"/>
    <g class="cls-3">
      <ellipse class="cls-2" cx="407.53" cy="96.85" rx="27.46" ry="27.61" transform="translate(-11.29 89.77) rotate(-12.4)"/>
    </g>
    <rect class="cls-4" x="228.94" y="115.06" width="26.17" height="73.33"/>
    <ellipse class="cls-2" cx="66.14" cy="124.13" rx="27.16" ry="29.45" transform="translate(-11.88 7.1) rotate(-5.64)"/>
    <ellipse class="cls-2" cx="221.7" cy="133.05" rx="26.72" ry="28.97" transform="translate(-12 22.43) rotate(-5.64)"/>
    <rect class="cls-4" x="297.28" y="142.65" width="64.32" height="23.8" transform="translate(147.54 469.71) rotate(-85.14)"/>
    <rect class="cls-4" x="371.55" y="163.3" width="64.32" height="14.48" transform="translate(112.79 498.3) rotate(-71.31)"/>
    <ellipse class="cls-2" cx="399.53" cy="137.31" rx="29.97" ry="31.51" transform="translate(228.88 523.77) rotate(-85.14)"/>
    <ellipse class="cls-2" cx="351.53" cy="98.36" rx="29.97" ry="31.51" transform="translate(223.75 440.3) rotate(-85.14)"/>
    <ellipse class="cls-2" cx="315.58" cy="127.06" rx="26.39" ry="27.75" transform="translate(162.25 430.74) rotate(-85.14)"/>
    <ellipse class="cls-2" cx="423.13" cy="88.05" rx="21.91" ry="23.03" transform="translate(299.56 502.21) rotate(-85.14)"/>
    <ellipse class="cls-2" cx="445.64" cy="125.56" rx="28.37" ry="26.98" transform="translate(-10.18 44.4) rotate(-5.64)"/>
    <g class="cls-3">
      <ellipse class="cls-2" cx="216.64" cy="97.86" rx="27.32" ry="28.34" transform="translate(57.67 274.61) rotate(-72.34)"/>
    </g>
    <ellipse class="cls-2" cx="265.92" cy="112.91" rx="28.7" ry="27.67" transform="translate(-22.53 96.77) rotate(-19.8)"/>
    <ellipse class="cls-2" cx="73.05" cy="164.53" rx="27.13" ry="29.42" transform="translate(-15.81 7.97) rotate(-5.64)"/>
    <ellipse class="cls-2" cx="118.66" cy="125.15" rx="28.49" ry="28.54" transform="translate(-51.41 96.51) rotate(-36.97)"/>
  </g>
</svg>