<?xml version="1.0" encoding="UTF-8"?>
<svg id="_レイヤー_2" data-name="レイヤー 2" xmlns="http://www.w3.org/2000/svg" viewBox="0 0 501.58 362.13">
  <defs>
    <style>
      .cls-1 {
        stroke-width: 8px;
      }

      .cls-1, .cls-2, .cls-3, .cls-4, .cls-5, .cls-6, .cls-7, .cls-8, .cls-9, .cls-10, .cls-11 {
        fill: none;
        stroke: #e09c2e;
        stroke-miterlimit: 10;
      }

      .cls-12 {
        fill: #fff;
      }

      .cls-13 {
        fill: #e09c2e;
      }

      .cls-2 {
        stroke-width: 10.9px;
      }

      .cls-3 {
        stroke-width: 10.23px;
      }

      .cls-4 {
        stroke-width: 7px;
      }

      .cls-5 {
        stroke-width: 9.91px;
      }

      .cls-14 {
        opacity: .8;
      }

      .cls-6 {
        stroke-width: 8.02px;
      }

      .cls-15 {
        fill: #5e5333;
      }

      .cls-7 {
        stroke-width: 6.24px;
      }

      .cls-8 {
        stroke-width: 6.91px;
      }

      .cls-9 {
        stroke-width: 8.61px;
      }

      .cls-10 {
        stroke-width: 8.04px;
      }

      .cls-11 {
        stroke-width: 7.72px;
      }

      .cls-16 {
        opacity: .7;
      }
    </style>
  </defs>
  <g id="_レイヤー_1-2" data-name="レイヤー 1">
    <polygon class="cls-13" points="157.5 218.07 186.5 212.07 171.39 159.82 148.34 164.89 157.5 218.07"/>
    <g>
      <path class="cls-12" d="M28.5,264.57c12.31-6.01,29.43-13.84,50.34-21.73,91.08-34.38,167.42-37.3,185.16-37.77,53.52-1.42,129.03-3.43,205.5,40,12.85,7.3,23.01,14.34,30,19.5"/>
      <path class="cls-4" d="M28.5,264.57c12.31-6.01,29.43-13.84,50.34-21.73,91.08-34.38,167.42-37.3,185.16-37.77,53.52-1.42,129.03-3.43,205.5,40,12.85,7.3,23.01,14.34,30,19.5"/>
    </g>
    <g>
      <path class="cls-15" d="M127.88,77.72l1.82-3.11c1.61,1.61,3.45,2.16,5.49,1.65,1.34-.33,2.39-1.19,3.15-2.59.75-1.39,1.09-3.07,1-5.04l-.77-17.01c-.6.05-1.02.11-1.25.16-1.88.46-3.28,1.52-4.2,3.16-.92,1.65-1.14,3.46-.65,5.46l-2.91,2.44c-.54-3.23.12-6.01,1.98-8.35,1.86-2.33,4.74-3.97,8.62-4.93l1.38-.34c3.55,5.34,6.57,10.99,9.06,16.94l6.74-20.83,3.55-1.33.05,5.8.66,14.63c.07,1.3.19,2.32.37,3.06.25,1,.98,1.35,2.2,1.05.6-.15,1.4-.41,2.38-.79l.05,1.15-8.02,3.75-1.06-23.31-7.06,21.58-1.69.71-.12-.5c-1.1-4.45-3.54-9.71-7.35-15.77l.32,7.31c.41,9.01-2.25,14.22-7.99,15.64-2,.49-3.92.3-5.76-.59Z"/>
      <path class="cls-15" d="M186.6,56.57l-.31.06c-.77,3.13-1.91,5.78-3.4,7.94-1.5,2.16-3.05,3.39-4.65,3.68-2.43.44-3.92-.85-4.48-3.9-.61-3.35.12-6.88,2.21-10.59,2.16-3.84,5.23-6.12,9.22-6.85,1.65-.3,3.38-.55,5.21-.74l-.31,5.35-.11,8.85c-.02,1.39,0,2.27.08,2.67.13.73.54,1.03,1.22.9,1.15-.21,2.64-1.79,4.46-4.75l-.02,1.67c-2.03,3.17-4.05,4.94-6.06,5.31-1.67.31-2.67-.41-2.99-2.15-.11-.58-.15-1.58-.12-3.02l.07-4.43ZM186.73,49.4c-1.57-.38-3.06-.44-4.48-.18-2.1.38-3.53,2.02-4.3,4.9-.9,3.4-1.12,6.36-.66,8.86.33,1.81,1.03,2.62,2.09,2.42.99-.18,2.23-1.48,3.7-3.9,1.48-2.42,2.68-5.1,3.59-8.03l.06-4.07Z"/>
      <path class="cls-15" d="M193.07,76.39l2.02-2.81c1.26.42,2.53.54,3.81.37,2.96-.4,4.6-3.12,4.92-8.15l.87-13.87c.08-1.76.08-2.93,0-3.5-.13-.98-.57-1.41-1.31-1.31-.53.07-1.45.4-2.74.99l.08-1.09,8.13-3.93-.57,5.8-.28,4.37.3-.04c.93-3.11,2.19-5.7,3.79-7.77s3.2-3.22,4.81-3.44c2.47-.33,3.92,1.03,4.33,4.1.48,3.59-.47,7.18-2.87,10.76-2.4,3.59-5.18,5.59-8.35,6.02-.33.04-1,.07-2.01.08-.13,0-.33,0-.6.01-.41,3.87-1.61,6.96-3.61,9.26-1.99,2.3-4.66,3.67-8,4.12-.84.11-1.74.13-2.71.04ZM207.55,60.45c1.54.44,3.03.57,4.48.37,2.1-.28,3.61-1.85,4.51-4.69,1.07-3.36,1.44-6.3,1.1-8.82-.25-1.82-.91-2.66-1.99-2.52-.99.13-2.27,1.37-3.86,3.72s-2.92,4.97-4,7.87l-.25,4.06Z"/>
      <path class="cls-15" d="M240.3,53.85l-.16,1.64c-2.49,3.07-4.73,4.7-6.71,4.89-1.66.16-2.57-.66-2.74-2.44-.07-.73-.04-1.73.09-2.99l1.26-12.3c.44-4.3,1.72-7.74,3.83-10.31,2.11-2.57,4.83-4.01,8.17-4.33,1.17-.11,2.23-.09,3.19.07l-2.17,2.73c-1.41-.49-2.61-.69-3.59-.6-1.86.17-3.19.98-4,2.42-.81,1.44-1.41,4.08-1.8,7.92l-1.45,14.08c-.14,1.37-.19,2.25-.16,2.66.07.74.45,1.07,1.14,1,.78-.07,2.2-1.25,4.24-3.54.16-.18.44-.48.85-.91Z"/>
      <path class="cls-15" d="M261.59,53.23l-.19,1.37c-3.58,2.79-6.69,4.26-9.31,4.4-1.66.09-3.04-.42-4.14-1.53-1.1-1.11-1.7-2.59-1.79-4.43-.18-3.3.92-6.46,3.3-9.5s4.99-4.64,7.86-4.79c1.04-.05,1.9.25,2.58.92.68.67,1.05,1.56,1.11,2.68.12,2.24-.93,4.23-3.13,5.97s-4.9,2.69-8.09,2.85l.02.79c.18,3.42,1.52,5.06,4.03,4.93,2.16-.11,4.75-1.33,7.75-3.65ZM249.77,50.09c2.61-.35,4.62-1.13,6.04-2.35,1.41-1.22,2.07-2.73,1.98-4.55-.1-1.79-.79-2.65-2.09-2.58-1.4.07-2.71,1.08-3.92,3.02-1.21,1.94-1.88,4.09-2,6.47Z"/>
      <path class="cls-15" d="M309.68,58.09l.15-2.39c.11-4.62-.22-8.28-.99-10.98-.78-2.69-1.89-4.06-3.33-4.1-1.46-.04-3.05,1.33-4.74,4.1l.57-2.58c2.19-2.76,4.21-4.11,6.04-4.07,4.07.1,5.98,5.28,5.72,15.53l-.02.97,1.48-1.7c4.39-5.05,6.62-8.74,6.68-11.09.03-1.1-.33-2.09-1.08-2.96l3.77-.33c.55.87.82,1.66.8,2.36-.02.98-.45,2.08-1.29,3.29-.83,1.21-2.63,3.34-5.39,6.39l-6.47,7.17-1.9.39Z"/>
      <path class="cls-15" d="M344.06,54.18l-.44,1.61c-2.76,2.56-5.16,3.76-7.2,3.6-1.68-.12-2.46-1.07-2.33-2.83.04-.6.25-1.57.62-2.92l1.67-6.01c.46-1.71.71-2.84.75-3.42.07-.98-.27-1.5-1.03-1.56-.53-.04-1.48.09-2.87.39l.29-1.05,8.78-2.16-1.75,5.51-2.36,8.53c-.37,1.34-.57,2.19-.6,2.56-.06.76.26,1.16.95,1.22,1.16.09,2.99-1.07,5.51-3.47ZM338.91,36.5l1.35-2.29,5.18-2.86-1.75,3.11-4.79,2.04Z"/>
      <path class="cls-15" d="M360.38,56.01l-.5,1.57c-3.08,2.48-5.61,3.61-7.59,3.37-1.65-.19-2.38-1.18-2.17-2.96.09-.73.32-1.7.71-2.91l3.81-11.76c1.33-4.12,3.3-7.21,5.9-9.28,2.6-2.07,5.57-2.91,8.9-2.52,1.17.14,2.2.38,3.1.74l-2.69,2.21c-1.28-.78-2.41-1.22-3.39-1.34-1.85-.22-3.32.29-4.42,1.53-1.09,1.24-2.23,3.7-3.42,7.37l-4.37,13.47c-.43,1.31-.66,2.16-.71,2.57-.09.73.21,1.14.9,1.22.78.09,2.41-.77,4.89-2.58.19-.14.54-.38,1.02-.71Z"/>
      <path class="cls-15" d="M376.66,58.65l-.57,1.54c-3.19,2.34-5.76,3.35-7.73,3.03-1.64-.27-2.32-1.29-2.03-3.06.12-.73.4-1.69.84-2.87l4.33-11.58c1.52-4.05,3.62-7.05,6.31-9,2.69-1.95,5.69-2.66,9-2.12,1.16.19,2.18.48,3.07.88l-2.79,2.09c-1.24-.83-2.35-1.33-3.32-1.49-1.84-.3-3.33.14-4.48,1.33-1.15,1.19-2.39,3.59-3.75,7.21l-4.97,13.26c-.48,1.29-.76,2.13-.83,2.54-.12.73.16,1.15.85,1.26.78.13,2.44-.66,5-2.35.2-.13.55-.35,1.05-.67Z"/>
      <path class="cls-15" d="M396.78,58.86l-.31-.07c-1.96,2.57-4.05,4.54-6.28,5.93-2.23,1.39-4.14,1.9-5.73,1.53-2.41-.56-3.26-2.35-2.56-5.36.77-3.32,2.85-6.27,6.24-8.84,3.51-2.66,7.23-3.53,11.18-2.62,1.63.38,3.32.84,5.07,1.39l-2.41,4.78-3.63,8.07c-.57,1.26-.9,2.09-.99,2.48-.17.72.09,1.16.76,1.31,1.14.26,3.13-.6,5.98-2.58l-.68,1.52c-3.13,2.1-5.69,2.92-7.68,2.46-1.66-.39-2.29-1.44-1.89-3.16.13-.57.5-1.51,1.09-2.81l1.83-4.03ZM399.75,52.33c-1.29-.97-2.64-1.62-4.04-1.95-2.08-.48-4.04.44-5.9,2.78-2.18,2.77-3.56,5.39-4.14,7.86-.42,1.79-.1,2.81.95,3.05.98.23,2.63-.47,4.95-2.11,2.32-1.63,4.48-3.61,6.49-5.94l1.68-3.71Z"/>
      <path class="cls-15" d="M410.14,72.17c-1.12-1.1-1.35-2.67-.69-4.68,1.08-3.3,3.45-6.05,7.13-8.25,3.57-2.15,7.29-2.6,11.14-1.34.74.24,2.27.81,4.6,1.72l-2.8,4.56-2.05,3.62c-1.07,1.91-1.83,3.32-2.29,4.24-1.9,3.76-3.41,6.3-4.53,7.63-1.12,1.33-2.7,2.47-4.75,3.43-3,1.39-6.01,1.59-9.02.61-1.96-.64-3.43-1.54-4.41-2.71-.98-1.16-1.27-2.36-.87-3.58.8-2.45,3.65-4.2,8.54-5.26ZM424.05,66.96l-.27-.09c-2.04,2.23-4.14,3.88-6.31,4.93-2.17,1.05-4.21,1.43-6.11,1.11-3.58,1.06-5.65,2.46-6.21,4.19-.36,1.11-.13,2.24.7,3.38s2.02,1.96,3.57,2.47c1.99.65,3.82.39,5.48-.79s3.28-3.36,4.87-6.56l4.28-8.64ZM427.53,60.76c-1.12-1.09-2.35-1.86-3.67-2.29-1.48-.48-2.95-.23-4.41.76-1.16.78-2.4,2.09-3.73,3.92s-2.23,3.47-2.7,4.91c-.51,1.57-.27,2.52.72,2.84,2.19.72,6.14-1.5,11.84-6.66l1.95-3.49Z"/>
      <path class="cls-15" d="M448.75,81.88l-.77,1.14c-4.44.95-7.88.92-10.29-.1-1.53-.65-2.55-1.71-3.06-3.18-.5-1.48-.4-3.07.32-4.77,1.28-3.04,3.65-5.41,7.12-7.11s6.52-1.99,9.16-.88c.96.4,1.6,1.05,1.92,1.95s.26,1.86-.17,2.9c-.87,2.07-2.68,3.4-5.42,4-2.74.6-5.58.28-8.52-.96l-.32.72c-1.33,3.15-.84,5.22,1.48,6.19,2,.84,4.85.87,8.56.1ZM439.48,73.9c2.5.82,4.65,1,6.46.52,1.8-.48,3.06-1.56,3.76-3.23.7-1.65.44-2.73-.75-3.24-1.3-.54-2.91-.21-4.85,1-1.94,1.21-3.48,2.86-4.62,4.95Z"/>
    </g>
    <g>
      <path class="cls-15" d="M72.41,271.38c3.68.24,7.65.72,11.38,1.4.99-4.03,1.69-9.11,1.82-14.02l3.81.16c-.03.35-.44.69-1.07.85-.26,4.15-.92,9.21-1.94,13.49,3.19.68,6.56,1.53,9.27,2.55l-.85,2.72c-2.45-.95-5.66-1.9-9.12-2.67-1.69,6.24-4.94,13.12-9.32,19.02-.59-.36-1.83-.83-2.54-1,4.33-5.7,7.69-12.62,9.35-18.5-3.74-.71-7.65-1.25-11.35-1.53l.56-2.46Z"/>
      <path class="cls-15" d="M102.49,267.21l28.83-8.51.72,2.45-27.52,8.12c-.11.41-.48.78-.91.98l-1.12-3.05Z"/>
      <path class="cls-15" d="M137.19,247.44l22.3-5.19.19-.15,2.81,1.27c-.07.16-.15.29-.35.41.23,13.85-4.27,22.14-14.05,28.7-.53-.54-1.45-1.29-2.06-1.7,9.33-6.13,13.7-14.02,13.33-25.95l-21.6,5.03-.56-2.42ZM162.45,234.94c2.1-.49,4.22.83,4.72,2.97.49,2.1-.83,4.22-2.93,4.71-2.14.5-4.26-.82-4.75-2.92-.51-2.21.89-4.27,2.96-4.76ZM166.01,238.18c-.35-1.51-1.82-2.42-3.29-2.08s-2.42,1.82-2.07,3.33c.34,1.47,1.86,2.41,3.33,2.07,1.54-.36,2.36-1.92,2.04-3.32Z"/>
      <path class="cls-15" d="M179.97,239.52c.02.33-.26.59-.71.74,1.42,9.58,2.14,18.41-2.24,25.69-.64-.33-1.58-.71-2.36-.98,4.3-6.65,3.42-15.63,1.88-25.2l3.43-.26ZM192.67,258.38c5.43-3.89,8.37-9.73,9.37-16.29.61.37,1.78.79,2.44,1.01-1.29,7.6-4.78,13.64-11.72,18.52-.06.3-.26.63-.48.81l-2.25-2.02.3-.6-4.47-26.04,3.33-.39c.02.33-.18.65-.67.81l4.15,24.19Z"/>
      <path class="cls-15" d="M225.62,232.85c-.11.34-.37.62-.83.67-.08,11.27-2.75,21.38-8.69,22.03-3.01.33-6.05-2.38-6.67-8.04-.93-8.59,4.98-16.51,14.39-17.54,10.35-1.12,15.53,4.94,16.29,11.92.93,8.52-3.57,13.17-12.01,16.12-.38-.54-1.1-1.44-1.74-2.02,8.06-2.47,11.85-6.94,11.11-13.7-.64-5.91-5.02-10.86-13.4-9.95-.36.04-.75.12-1.07.19l2.61.33ZM222.13,232.75c-7.13,1.68-10.96,8.15-10.28,14.41.42,3.83,2.32,6.05,4.04,5.86,4.33-.47,6.41-10.37,6.24-20.27Z"/>
      <path class="cls-15" d="M262.79,253.99l15.04-.52.08,2.3-32.53,1.12-.08-2.3,15.04-.52-.2-5.72-12.59.43-.08-2.3,12.59-.43-.15-4.42-11.44.39-.56-16.3,25.69-.88.56,16.3-11.8.41.15,4.42,13.03-.45.08,2.3-13.03.45.2,5.72ZM250.4,227.83l.17,4.89,9.03-.31-.17-4.89-9.03.31ZM250.81,239.74l9.03-.31-.17-4.93-9.03.31.17,4.93ZM271.37,232.01l-.17-4.89-9.32.32.17,4.89,9.32-.32ZM271.61,239.03l-.17-4.93-9.32.32.17,4.93,9.32-.32Z"/>
      <path class="cls-15" d="M332.03,225.84c-.1.43-.54.58-1.23.57-.53,1.99-1.41,5.43-1.99,7.55,1.63-.07,3.11-.12,4.01-.05,5.46.3,7.09,4.05,6.72,9.44-.18,2.69-.9,5.86-1.76,7.96-1.36,3.59-3.78,5.19-6.76,4.99-1.47-.1-3.37-.84-6.29-3.56.44-.62.78-1.39,1.12-2.12,2.72,2.42,4.2,3.03,5.31,3.1,2.05.14,3.36-1.07,4.23-3.32.91-2.18,1.52-5.45,1.65-7.29.24-4.1-.92-6.63-4.52-6.84-1.08-.07-2.56-.03-4.41.06-2.29,7.21-4.83,13.35-8.67,18.9l-2.29-1.31c3.86-5.33,6.21-10.77,8.36-17.48-1.85.09-4.49.24-6.45.43l-.04-2.53c1.77-.1,4.74-.22,7.17-.35.72-2.59,1.51-5.78,2.15-8.91l3.7.75ZM347.49,244.24c-.8-5.32-3.91-10.01-7.25-12.83l2.04-1.38c3.63,2.95,7.06,8.16,7.87,13.38l-2.65.83Z"/>
      <path class="cls-15" d="M368.01,248.28c1.31-.41,2.51-.43,3.65-.25,1.81.29,2.9,1.89,2.54,4.13-.15.92-.43,2.01-.57,2.86-.58,3.62,1.55,3.97,4.6,4.46,1.56.25,3.36.43,4.67.42-.26,1.6-.3,2.54-.3,2.54-1.41-.08-3.09-.28-4.65-.53-1.46-.23-2.76-.52-3.66-.81-2.5-.8-3.65-2.92-3.35-5.02.13-.82.46-2.41.63-3.47.24-1.49-.19-2.44-1.43-2.64-1.71-.27-4.5.3-6.84,1.93-2.39,1.69-6.89,4.98-8.33,6.21,0,0-.31-.56-1.62-2.19,3.93-2.9,16.84-11.95,21.03-14.88-2.63-.17-10.78-1.01-14.86-1.44-.14.2-.34.31-.63.3l.24-2.88c5,.66,14.42,1.7,18.06,1.96l.58-.23,1.76,2.22c-.24.14-.5.17-.9.15-2.58,1.74-7.59,5.05-10.63,7.15v.04ZM379.21,235.5c-3.62-1.71-10.13-3.86-14.83-4.83l.92-2.29c4.87,1,11.11,2.99,14.97,4.82l-1.06,2.31Z"/>
      <path class="cls-15" d="M394.77,237.42c2.63.61,24.44,4.96,28.96,6.16l-.68,2.61c-.44-.16-.86-.27-1.28-.39-2.01-.55-3.81-.67-6.42.14-6.06,1.69-12.63,5.9-13.86,10.38-1.33,4.86,1.28,8.68,9.58,12.15l-1.81,2.12c-9.47-4.13-12.14-8.82-10.44-15,1.34-4.89,7.8-9.5,15.25-11.75-3.89-.77-14.34-2.82-18.94-3.63-.18.25-.63.39-.92.35l.56-3.13ZM415.39,250.44c1.32,1.71,2.74,4.3,3.41,6.09l-1.62.71c-.55-1.79-2.08-4.53-3.26-6.08l1.47-.72ZM419.98,248.41c1.36,1.72,2.82,4.28,3.4,6.09l-1.6.68c-.56-1.65-1.98-4.35-3.27-6.05l1.47-.72Z"/>
      <path class="cls-15" d="M436.71,255.84l-1.35,3.33c.75,1.59,2.63,6.54,3.03,7.76l-2.24,1.31c-.25-1.38-1.13-4.3-1.85-6.46l-6.31,15.54-2.17-.88,6.93-17.08c-3.19,3.56-6.99,6.88-10.04,8.47,0-.74-.25-1.89-.43-2.58,3.73-1.83,8.58-6.11,11.89-10.44l-5.8-2.35.87-2.13,6.17,2.5,2.98-7.34,2.75,1.35c-.13.22-.4.31-.84.16l-2.72,6.71,5.2,2.11-.87,2.13-5.2-2.11ZM460.04,262.78l-.87,2.13-3.67-1.49-7.46,18.38c-1.18,2.9-2.47,2.73-8.67.21.14-.72.19-1.9.11-2.75,1.15.51,2.27,1,3.17,1.37.9.37,1.61.62,1.95.75.6.24.88.12,1.14-.51l7.46-18.38-10.27-4.17.87-2.13,10.27,4.17,2.95-7.27,2.87,1.36c-.14.25-.38.35-.84.24l-2.68,6.6,3.67,1.49ZM444.09,263.11c.87,3.31,1.43,7.49,1.27,9.99l-2.45.21c.19-2.49-.25-6.75-1.05-10.06l2.23-.14Z"/>
    </g>
    <g>
      <polygon class="cls-13" points="97.51 235.08 78.5 242.07 63.45 190.25 75.84 185.79 97.51 235.08"/>
      <polygon class="cls-1" points="97.51 235.08 78.5 242.07 63.45 190.25 75.84 185.79 97.51 235.08"/>
    </g>
    <polygon class="cls-13" points="275.01 207.19 243 209.07 241.92 149.34 270 148.08 275.01 207.19"/>
    <polygon class="cls-13" points="334 203.57 362 205.64 363.98 153.34 340.27 151.32 334 203.57"/>
    <polygon class="cls-13" points="413.38 220.87 431.47 226.57 444.98 176.47 431.19 172.07 413.38 220.87"/>
    <g class="cls-16">
      <circle class="cls-13" cx="93.26" cy="134.83" r="21.26"/>
      <circle class="cls-1" cx="93.26" cy="134.83" r="21.26"/>
    </g>
    <g>
      <circle class="cls-13" cx="54.26" cy="127.83" r="21.26"/>
      <circle class="cls-1" cx="54.26" cy="127.83" r="21.26"/>
    </g>
    <g>
      <circle class="cls-13" cx="176.26" cy="144.83" r="21.26"/>
      <circle class="cls-1" cx="176.26" cy="144.83" r="21.26"/>
    </g>
    <g>
      <circle class="cls-13" cx="419.26" cy="168.83" r="21.26"/>
      <circle class="cls-1" cx="419.26" cy="168.83" r="21.26"/>
    </g>
    <g>
      <circle class="cls-13" cx="143.15" cy="123.39" r="28.97"/>
      <circle class="cls-2" cx="143.15" cy="123.39" r="28.97"/>
    </g>
    <g class="cls-16">
      <circle class="cls-13" cx="25.26" cy="153.83" r="21.26"/>
      <circle class="cls-1" cx="25.26" cy="153.83" r="21.26"/>
    </g>
    <g class="cls-14">
      <circle class="cls-13" cx="464.35" cy="184.92" r="28.35"/>
    </g>
    <g>
      <circle class="cls-13" cx="44.35" cy="199.92" r="28.35"/>
      <circle class="cls-1" cx="44.35" cy="199.92" r="28.35"/>
    </g>
    <g class="cls-16">
      <circle class="cls-13" cx="97.35" cy="179.92" r="28.35"/>
      <circle class="cls-1" cx="97.35" cy="179.92" r="28.35"/>
    </g>
    <g>
      <circle class="cls-13" cx="445" cy="130.57" r="24.5"/>
      <circle class="cls-8" cx="445" cy="130.57" r="24.5"/>
    </g>
    <g>
      <circle class="cls-13" cx="72" cy="164.57" r="30.5"/>
      <circle class="cls-9" cx="72" cy="164.57" r="30.5"/>
    </g>
    <g class="cls-16">
      <circle class="cls-13" cx="265.26" cy="94.83" r="21.26"/>
      <circle class="cls-1" cx="265.26" cy="94.83" r="21.26"/>
    </g>
    <g>
      <ellipse class="cls-13" cx="279.02" cy="132.38" rx="27.13" ry="27.25" transform="translate(-11.95 28.87) rotate(-5.8)"/>
      <ellipse class="cls-3" cx="279.02" cy="132.38" rx="27.13" ry="27.25" transform="translate(-11.95 28.87) rotate(-5.8)"/>
    </g>
    <g>
      <ellipse class="cls-13" cx="231.02" cy="103.38" rx="27.13" ry="27.25" transform="translate(-9.26 23.87) rotate(-5.8)"/>
      <ellipse class="cls-3" cx="231.02" cy="103.38" rx="27.13" ry="27.25" transform="translate(-9.26 23.87) rotate(-5.8)"/>
    </g>
    <g>
      <ellipse class="cls-13" cx="339.96" cy="110.15" rx="26.28" ry="26.39" transform="translate(-9.39 34.92) rotate(-5.8)"/>
      <ellipse class="cls-5" cx="339.96" cy="110.15" rx="26.28" ry="26.39" transform="translate(-9.39 34.92) rotate(-5.8)"/>
    </g>
    <g>
      <circle class="cls-13" cx="226.35" cy="156.92" r="28.35"/>
      <circle class="cls-1" cx="226.35" cy="156.92" r="28.35"/>
    </g>
    <g class="cls-16">
      <ellipse class="cls-13" cx="283.35" cy="157.07" rx="28.35" ry="28.5"/>
      <ellipse class="cls-6" cx="283.35" cy="157.07" rx="28.35" ry="28.5"/>
    </g>
    <g>
      <circle class="cls-13" cx="375.85" cy="136.42" r="27.35"/>
      <circle class="cls-11" cx="375.85" cy="136.42" r="27.35"/>
    </g>
    <g>
      <circle class="cls-13" cx="464.1" cy="162.17" r="22.1"/>
      <circle class="cls-7" cx="464.1" cy="162.17" r="22.1"/>
    </g>
    <g>
      <ellipse class="cls-13" cx="327.85" cy="151.42" rx="28.35" ry="28.65"/>
      <ellipse class="cls-10" cx="327.85" cy="151.42" rx="28.35" ry="28.65"/>
    </g>
    <g class="cls-16">
      <circle class="cls-13" cx="172.26" cy="108.83" r="21.26"/>
      <circle class="cls-1" cx="172.26" cy="108.83" r="21.26"/>
    </g>
    <g class="cls-16">
      <circle class="cls-13" cx="380.26" cy="108.83" r="21.26"/>
      <circle class="cls-1" cx="380.26" cy="108.83" r="21.26"/>
    </g>
    <g class="cls-16">
      <circle class="cls-13" cx="381.26" cy="170.83" r="21.26"/>
      <circle class="cls-1" cx="381.26" cy="170.83" r="21.26"/>
    </g>
    <g class="cls-16">
      <circle class="cls-13" cx="475.26" cy="144.83" r="21.26"/>
      <circle class="cls-1" cx="475.26" cy="144.83" r="21.26"/>
    </g>
    <g>
      <circle class="cls-13" cx="136.35" cy="168.92" r="28.35"/>
      <circle class="cls-1" cx="136.35" cy="168.92" r="28.35"/>
    </g>
    <g class="cls-16">
      <circle class="cls-13" cx="195.35" cy="158.92" r="28.35"/>
      <circle class="cls-1" cx="195.35" cy="158.92" r="28.35"/>
    </g>
    <path class="cls-13" d="M104.48,84.22c.18-.54,4.92-11.64,4.92-11.64,0,0-.72.04-1.85.04-1.06,0-1.17-.58-1.29-1.06-.13-.48-1.36-6.34-1.36-6.34,0,0-3.73,3.02-4.3,3.47-.57.45-.89.33-1.08.17-.19-.16-1.93-2.28-1.93-2.28,0,0-1.43,5.99-1.84,7.05-.41,1.06-1.25.4-1.44-.33-.19-.73-3.13-10.54-3.13-10.54,0,0-1.27,1.74-1.78,2.48-.51.74-1.12.73-1.79.3-.67-.43-5.81-4.38-5.81-4.38,0,0,.04,6.49-.02,7.28-.06.79-.42,1.28-1.32,1.24-.9-.04-3.05-.08-3.05-.08,0,0,6.04,8.27,6.5,8.87.47.59.48,1.66-.61,1.35-1.09-.31-6.72-2.79-6.72-2.79,0,0,.64,2.66.65,2.91.01.25-.08.58-.79.76-.7.18-5.36,1.33-5.36,1.33,0,0,3.92,4.53,4.23,4.91.31.39.7.82.06,1.67-.69.91-1.15,1.45-1.15,1.45,0,0,11.71,2.93,12.25,3.11.55.18.77.47.85,1.03.08.56-.55,3.28-.55,3.28,0,0,7.88-5.05,8.46-5.11.58-.06.95-.31,1.73.91.77,1.22,3.47,7.63,3.47,7.63l.85-.42.08-.04.85-.42s-3.47-6.02-3.98-7.37c-.51-1.35-.09-1.51.31-1.93.4-.42,9.18-3.65,9.18-3.65,0,0-2.55-1.15-2.95-1.55-.4-.4-.49-.75-.3-1.3Z"/>
    <path class="cls-13" d="M483.86,102.46c.55-.15,12.42-2.34,12.42-2.34,0,0-.43-.57-1.06-1.52-.59-.89-.16-1.3.17-1.66.33-.37,4.53-4.64,4.53-4.64,0,0-4.57-1.44-5.27-1.66-.69-.22-.76-.56-.74-.81.03-.25.83-2.87.83-2.87,0,0-5.78,2.13-6.89,2.37-1.11.24-1.02-.82-.52-1.39.5-.56,7.05-8.44,7.05-8.44,0,0-2.15-.09-3.05-.11-.9-.02-1.23-.53-1.24-1.32-.01-.79.44-7.27.44-7.27,0,0-5.38,3.63-6.07,4.01-.69.38-1.3.35-1.77-.41-.47-.77-1.62-2.58-1.62-2.58,0,0-3.55,9.61-3.79,10.32-.24.72-1.12,1.32-1.46.24-.35-1.08-1.39-7.15-1.39-7.15,0,0-1.86,2.01-2.07,2.15-.2.15-.53.25-1.07-.23-.54-.49-4.07-3.73-4.07-3.73,0,0-1.6,5.77-1.75,6.24-.15.47-.3,1.04-1.36.98-1.14-.07-1.85-.16-1.85-.16,0,0,4.04,11.37,4.18,11.93.15.56.04.9-.38,1.28-.42.37-3.04,1.36-3.04,1.36,0,0,8.56,3.77,8.94,4.22.37.44.78.62.2,1.94-.59,1.32-4.43,7.11-4.43,7.11l.82.47.08.04.82.47s3.09-6.22,3.94-7.39c.84-1.17,1.21-.91,1.78-.81.57.1,8.13,5.63,8.13,5.63,0,0-.46-2.76-.34-3.31.11-.55.36-.82.91-.97Z"/>
  </g>
</svg>