<?xml version="1.0" encoding="UTF-8"?>
<svg id="_レイヤー_2" data-name="レイヤー 2" xmlns="http://www.w3.org/2000/svg" viewBox="0 0 605.67 285.58">
  <defs>
    <style>
      .cls-1 {
        stroke-width: .98px;
      }

      .cls-1, .cls-2, .cls-3, .cls-4, .cls-5, .cls-6, .cls-7 {
        stroke: #231815;
        stroke-miterlimit: 10;
      }

      .cls-1, .cls-2, .cls-8, .cls-6 {
        fill: #fff;
      }

      .cls-2 {
        stroke-width: 1.3px;
      }

      .cls-3 {
        stroke-width: .96px;
      }

      .cls-3, .cls-5, .cls-7 {
        fill: none;
      }

      .cls-9 {
        fill: #e09c2e;
      }

      .cls-4, .cls-10 {
        fill: #231815;
      }

      .cls-5 {
        stroke-linecap: round;
        stroke-width: 3.72px;
      }

      .cls-7 {
        stroke-width: 1.22px;
      }

      .cls-11 {
        fill: #e09c2f;
      }
    </style>
  </defs>
  <g id="_レイヤー_1-2" data-name="レイヤー 1">
    <g>
      <path class="cls-10" d="M490.85,97.11h-5.89v-.61l.97-.92c2.37-2.16,3.56-3.47,3.56-4.93,0-.96-.46-1.85-1.9-1.85-.8,0-1.51.4-1.99.74l-.37-.7c.61-.49,1.51-.88,2.58-.88,2.01,0,2.8,1.32,2.8,2.55,0,1.69-1.32,3.13-3.38,5l-.78.74v.02h4.4v.82Z"/>
      <path class="cls-10" d="M492.17,92.65c0-3.14,1.36-4.67,3.22-4.67s3.04,1.61,3.04,4.55c0,3.12-1.21,4.72-3.19,4.72-1.81,0-3.07-1.61-3.07-4.61ZM497.32,92.58c0-2.24-.6-3.79-1.99-3.79-1.18,0-2.02,1.43-2.02,3.79s.73,3.86,1.98,3.86c1.47,0,2.03-1.73,2.03-3.86Z"/>
      <path class="cls-10" d="M507.75,87.6c-.05.08-.15.12-.32.11-.93,1.9-2.47,3.67-4.16,4.75-.16-.16-.48-.43-.7-.58,1.65-1.01,3.18-2.75,4.04-4.63l1.14.35ZM512.4,91.61h.21s.5.04.5.04c0,.08-.01.19-.01.29-.21,3.87-.41,5.26-.88,5.72-.37.38-.77.42-1.58.42-.45,0-1.02-.01-1.59-.05-.01-.24-.13-.58-.29-.8.9.07,1.77.08,2.09.08.28,0,.44-.02.57-.16.35-.31.56-1.56.73-4.75h-3.66c-.36,2.3-1.1,4.63-4.67,5.78-.12-.2-.36-.52-.57-.68,3.22-.97,3.97-2.99,4.29-5.1h-2.86v-.79h7.71ZM511.24,87.23c.88,1.66,2.62,3.51,4.09,4.43-.24.17-.57.49-.75.72-1.49-1.07-3.2-3.03-4.2-4.83l.85-.31Z"/>
    </g>
    <line class="cls-7" x1="575.19" y1="107.58" x2="438.8" y2="107.58"/>
    <g>
      <line class="cls-5" x1="187.05" y1="106.13" x2="430.33" y2="106.13"/>
      <g>
        <rect class="cls-8" x="187.05" y="105.02" width="2.61" height="2.21"/>
        <path class="cls-8" d="M422.43,107.23h-5.29v-2.21h5.29v2.21ZM411.84,107.23h-5.29v-2.21h5.29v2.21ZM401.26,107.23h-5.29v-2.21h5.29v2.21ZM390.68,107.23h-5.29v-2.21h5.29v2.21ZM380.1,107.23h-5.29v-2.21h5.29v2.21ZM369.52,107.23h-5.29v-2.21h5.29v2.21ZM358.94,107.23h-5.29v-2.21h5.29v2.21ZM348.36,107.23h-5.29v-2.21h5.29v2.21ZM337.78,107.23h-5.29v-2.21h5.29v2.21ZM327.2,107.23h-5.29v-2.21h5.29v2.21ZM316.62,107.23h-5.29v-2.21h5.29v2.21ZM306.04,107.23h-5.29v-2.21h5.29v2.21ZM295.46,107.23h-5.29v-2.21h5.29v2.21ZM284.88,107.23h-5.29v-2.21h5.29v2.21ZM274.3,107.23h-5.29v-2.21h5.29v2.21ZM263.72,107.23h-5.29v-2.21h5.29v2.21ZM253.14,107.23h-5.29v-2.21h5.29v2.21ZM242.56,107.23h-5.29v-2.21h5.29v2.21ZM231.98,107.23h-5.29v-2.21h5.29v2.21ZM221.4,107.23h-5.29v-2.21h5.29v2.21ZM210.82,107.23h-5.29v-2.21h5.29v2.21ZM200.24,107.23h-5.29v-2.21h5.29v2.21Z"/>
        <rect class="cls-8" x="427.72" y="105.02" width="2.61" height="2.21"/>
      </g>
    </g>
    <g>
      <rect class="cls-9" x="575.72" width="29.95" height="285.58"/>
      <g>
        <path class="cls-10" d="M585.98,74.27l.9-6.05,2.77.58-.75,5.18,2.77-.29c.8-.09,1.47.34,2.02,1.29.6,1.06.9,2.79.9,5.18l.08,11.66c.05,5.76-1.02,8.64-3.22,8.64h-3.22l-.45-5.61,3.74-.14-.22-15.83-3.07.43-2.7,21.16-3.14-1.87,2.7-18.43-2.77.72v-5.76l3.67-.86ZM598.11,73.98c.35,2.98.6,5.33.75,7.05.15,1.92.32,5.09.52,9.5l-3.07.72c-.15-3.36-.3-6.24-.45-8.64-.1-1.73-.33-4.32-.67-7.77l2.92-.86Z"/>
        <path class="cls-10" d="M590.62,124.96c-1.25.19-2.32.43-3.22.72-.65.19-1.97.77-3.97,1.73l.15-6.48,8.01-1.73c.85-.19,1.62-.24,2.32-.14.9.1,1.47.63,1.72,1.58.2.77.22,1.58.07,2.45-.15.96-.6,2.02-1.35,3.17l-2.17,3.31c.75-.19,1.3-.19,1.65,0,.6.29.9,1.06.9,2.3v1.87c0,.67.05,1.2.15,1.58.15.48.5.67,1.05.58l1.27-.29,1.57-.72-.37,6.05c-1.5.38-2.82.62-3.97.72-.95.09-1.67-.14-2.17-.72-.75-.86-1.07-2.01-.97-3.45l.15-2.59c.05-.48-.05-.77-.3-.86-.45-.19-1.07,0-1.87.58-.65.48-1.22,1.1-1.72,1.87l-3.14,5.04-2.25-4.32,8.46-12.24ZM587.78,109.71l7.41,3.31-1.35,4.75-7.49-3.89,1.42-4.17Z"/>
        <path class="cls-10" d="M598.93,151.69l.15,4.75-2.7.14c-2.05,1.34-3.57,2.73-4.57,4.17-2.1,3.07-3.22,6.14-3.37,9.21-.15,2.78.42,4.56,1.72,5.33.85.48,1.95.48,3.29,0,.7-.29,1.95-.91,3.74-1.87l1.05,5.33c-3.29,2.21-5.89,3.17-7.79,2.88-2.25-.29-3.82-1.87-4.72-4.75-.75-2.4-1-5.08-.75-8.06.25-2.78.87-5.23,1.87-7.34.55-1.15,1.45-2.54,2.7-4.17-1.7.29-2.82.48-3.37.58-.5.1-1.7.53-3.59,1.29l-.22-6.91c3.19-.38,5.77-.62,7.71-.72,2.1-.09,5.04-.05,8.84.14ZM595.57,159.89l1.27,6.62-1.72,1.44-1.27-7.2,1.72-.86ZM597.74,158.74l1.27,6.05-1.72,1.3-1.2-6.48,1.65-.86Z"/>
        <path class="cls-10" d="M581.34,213.26l2.55-10.65-2.47.58v-5.76h3.29l.22-6.62,3.07-.14-.15,6.76h2.02l-.08,4.32-1.8.14,2.47,5.47-1.57,5.61-1.27-3.46-.08,16.12h-3.29l.15-11.8-1.42,5.47-1.65-6.05ZM594.59,196.99l-.15-6.62,3.29.14.15,6.33,1.87.14.07,5.18h-1.8v18.42c.05,1.73-.22,3.12-.82,4.17-.35.48-.87.72-1.57.72-1.2,0-2.4-.05-3.59-.14l-.6-5.76h3.52l-.22-17.13-4.87.86.15-5.9,4.57-.43ZM590.55,209.8c0-2.49.6-3.79,1.8-3.89.5,0,.97.29,1.42.86s.72,1.34.82,2.3c.15,1.15.08,2.16-.22,3.02-.35,1.15-.85,1.78-1.5,1.87-.6.1-1.1-.19-1.5-.86-.55-.86-.82-1.97-.82-3.31Z"/>
      </g>
    </g>
    <g>
      <path class="cls-10" d="M210.59,88.73h5.26v.64l-3.75,8.35h-1.02l3.75-8.13v-.02h-4.25v-.83Z"/>
      <path class="cls-10" d="M222.03,88.73v.83h-3.23l-.37,2.54c.19-.02.38-.05.7-.05,1.6,0,3.02.95,3.02,2.76s-1.32,3.05-3.09,3.05c-.9,0-1.66-.26-2.06-.53l.29-.78c.34.23,1,.5,1.77.5,1.13,0,2.1-.83,2.09-2.12,0-1.24-.79-2.1-2.47-2.1-.48,0-.85.04-1.15.08l.56-4.19h3.95Z"/>
      <path class="cls-10" d="M230.99,88.2c-.05.08-.13.12-.29.11-.84,1.9-2.23,3.67-3.75,4.75-.14-.16-.43-.43-.64-.58,1.49-1.01,2.87-2.75,3.65-4.63l1.03.35ZM235.19,92.21h.19s.46.04.46.04c0,.08-.01.19-.01.29-.19,3.87-.37,5.26-.79,5.72-.34.38-.7.42-1.43.42-.41,0-.92-.01-1.44-.05-.01-.24-.12-.58-.26-.8.82.07,1.59.08,1.88.08.25,0,.4-.02.52-.16.31-.31.5-1.56.66-4.75h-3.3c-.32,2.3-1,4.63-4.21,5.78-.11-.2-.32-.52-.52-.68,2.9-.97,3.59-2.99,3.87-5.1h-2.58v-.79h6.96ZM234.13,87.83c.79,1.66,2.36,3.51,3.69,4.43-.22.17-.52.49-.67.72-1.34-1.07-2.89-3.03-3.79-4.83l.77-.31Z"/>
    </g>
    <g>
      <path class="cls-10" d="M339.41,88.73v.83h-3.23l-.37,2.54c.19-.02.38-.05.7-.05,1.6,0,3.02.95,3.02,2.76s-1.32,3.05-3.09,3.05c-.9,0-1.65-.26-2.06-.53l.29-.78c.34.23,1,.5,1.77.5,1.13,0,2.1-.83,2.09-2.12,0-1.24-.79-2.1-2.47-2.1-.48,0-.85.04-1.15.08l.56-4.19h3.95Z"/>
      <path class="cls-10" d="M340.93,93.25c0-3.14,1.22-4.67,2.9-4.67s2.75,1.61,2.75,4.55c0,3.12-1.09,4.72-2.88,4.72-1.63,0-2.77-1.61-2.77-4.61ZM345.57,93.18c0-2.24-.54-3.79-1.8-3.79-1.07,0-1.82,1.43-1.82,3.79s.66,3.86,1.79,3.86c1.33,0,1.83-1.73,1.83-3.86Z"/>
      <path class="cls-10" d="M354.99,88.2c-.05.08-.13.12-.29.11-.84,1.9-2.23,3.67-3.75,4.75-.14-.16-.43-.43-.64-.58,1.49-1.01,2.87-2.75,3.65-4.63l1.03.35ZM359.19,92.21h.19s.46.04.46.04c0,.08-.01.19-.01.29-.19,3.87-.37,5.26-.79,5.72-.34.38-.7.42-1.43.42-.41,0-.92-.01-1.44-.05-.01-.24-.12-.58-.26-.8.82.07,1.59.08,1.88.08.25,0,.4-.02.52-.16.31-.31.5-1.56.66-4.75h-3.3c-.32,2.3-1,4.63-4.21,5.78-.11-.2-.32-.52-.52-.68,2.9-.97,3.59-2.99,3.87-5.1h-2.58v-.79h6.96ZM358.13,87.83c.79,1.66,2.36,3.51,3.69,4.43-.22.17-.52.49-.67.72-1.34-1.07-2.89-3.03-3.79-4.83l.77-.31Z"/>
    </g>
    <g>
      <path class="cls-10" d="M361.56,147.71h-.95v-2.52h-3.92v-.64l3.84-5.83h1.03v5.7h1.22v.77h-1.22v2.52ZM357.7,144.43h2.91v-3.19c0-.49.02-.97.05-1.44h-.05c-.28.55-.49.94-.72,1.34l-2.19,3.26v.02Z"/>
      <path class="cls-10" d="M368.64,138.73v.83h-3.23l-.37,2.54c.19-.02.38-.05.7-.05,1.6,0,3.02.95,3.02,2.76s-1.32,3.05-3.09,3.05c-.9,0-1.66-.26-2.06-.53l.29-.78c.34.23,1,.5,1.78.5,1.13,0,2.1-.83,2.09-2.12,0-1.24-.79-2.1-2.47-2.1-.48,0-.85.04-1.15.08l.56-4.19h3.95Z"/>
      <path class="cls-10" d="M377.61,138.2c-.05.08-.13.12-.29.11-.84,1.9-2.23,3.67-3.75,4.75-.14-.16-.43-.43-.64-.58,1.49-1.01,2.87-2.75,3.65-4.63l1.03.35ZM381.81,142.21h.19s.46.04.46.04c0,.08-.01.19-.01.29-.19,3.87-.37,5.26-.79,5.72-.34.38-.7.42-1.43.42-.41,0-.92-.01-1.44-.05-.01-.24-.12-.58-.26-.8.82.07,1.59.08,1.88.08.25,0,.4-.02.52-.16.31-.31.5-1.56.66-4.75h-3.3c-.32,2.3-1,4.63-4.21,5.78-.11-.2-.32-.52-.52-.68,2.9-.97,3.59-2.99,3.87-5.1h-2.58v-.79h6.96ZM380.75,137.83c.79,1.66,2.36,3.51,3.69,4.43-.22.17-.52.49-.67.72-1.34-1.07-2.89-3.03-3.79-4.83l.77-.31Z"/>
    </g>
    <g>
      <path class="cls-10" d="M263.96,12.39v-6.71h-.02l-1.48.71-.24-.62,1.86-.87h.85v7.49h-.97Z"/>
      <path class="cls-10" d="M273.35,12.39h-5.31v-.51l.88-.77c2.13-1.8,3.21-2.89,3.21-4.11,0-.8-.42-1.54-1.72-1.54-.72,0-1.37.33-1.8.62l-.34-.58c.55-.41,1.37-.73,2.33-.73,1.81,0,2.53,1.1,2.53,2.13,0,1.41-1.19,2.61-3.05,4.17l-.71.62v.02h3.97v.68Z"/>
      <path class="cls-10" d="M279.64,4.91v.69h-3.23l-.37,2.12c.19-.02.38-.04.7-.04,1.59,0,3.02.79,3.02,2.3s-1.32,2.54-3.09,2.54c-.9,0-1.66-.22-2.06-.44l.29-.65c.34.19,1,.42,1.78.42,1.13,0,2.1-.69,2.09-1.77,0-1.03-.79-1.75-2.47-1.75-.48,0-.85.03-1.15.07l.56-3.49h3.95Z"/>
      <path class="cls-10" d="M288.6,4.47c-.05.07-.13.1-.29.09-.84,1.58-2.23,3.06-3.75,3.96-.14-.13-.43-.36-.64-.48,1.49-.84,2.87-2.29,3.65-3.86l1.03.29ZM292.8,7.8h.19s.46.03.46.03c0,.07-.01.16-.01.24-.19,3.23-.37,4.39-.79,4.77-.33.32-.7.35-1.43.35-.41,0-.92-.01-1.44-.04-.01-.2-.12-.48-.26-.67.82.06,1.59.07,1.88.07.25,0,.4-.02.52-.13.31-.26.5-1.3.66-3.96h-3.3c-.32,1.92-1,3.86-4.21,4.82-.11-.17-.32-.43-.52-.57,2.9-.81,3.59-2.49,3.87-4.25h-2.58v-.66h6.96ZM291.75,4.16c.79,1.38,2.36,2.93,3.69,3.69-.22.14-.52.41-.67.6-1.34-.89-2.89-2.53-3.79-4.03l.77-.26Z"/>
    </g>
    <g>
      <path class="cls-10" d="M498.74,12.39h-5.31v-.51l.88-.77c2.13-1.8,3.21-2.89,3.21-4.11,0-.8-.42-1.54-1.72-1.54-.72,0-1.37.33-1.8.62l-.34-.58c.55-.41,1.37-.73,2.33-.73,1.81,0,2.53,1.1,2.53,2.13,0,1.41-1.19,2.61-3.05,4.17l-.71.62v.02h3.97v.68Z"/>
      <path class="cls-10" d="M505.03,4.91v.69h-3.23l-.37,2.12c.19-.02.38-.04.7-.04,1.59,0,3.02.79,3.02,2.3s-1.32,2.54-3.09,2.54c-.9,0-1.66-.22-2.06-.44l.29-.65c.34.19,1,.42,1.78.42,1.13,0,2.1-.69,2.09-1.77,0-1.03-.79-1.75-2.47-1.75-.48,0-.85.03-1.15.07l.56-3.49h3.95Z"/>
      <path class="cls-10" d="M513.99,4.47c-.05.07-.13.1-.29.09-.84,1.58-2.23,3.06-3.75,3.96-.14-.13-.43-.36-.64-.48,1.49-.84,2.87-2.29,3.65-3.86l1.03.29ZM518.19,7.8h.19s.46.03.46.03c0,.07-.01.16-.01.24-.19,3.23-.37,4.39-.79,4.77-.34.32-.7.35-1.43.35-.41,0-.92-.01-1.44-.04-.01-.2-.12-.48-.26-.67.82.06,1.59.07,1.88.07.25,0,.4-.02.52-.13.31-.26.5-1.3.66-3.96h-3.3c-.32,1.92-1,3.86-4.21,4.82-.11-.17-.32-.43-.52-.57,2.9-.81,3.59-2.49,3.87-4.25h-2.58v-.66h6.96ZM517.13,4.16c.79,1.38,2.36,2.93,3.69,3.69-.22.14-.52.41-.67.6-1.34-.89-2.89-2.53-3.79-4.03l.77-.26Z"/>
    </g>
    <g>
      <rect class="cls-6" x="124.69" y="9.08" width="64" height="27"/>
      <g>
        <path class="cls-10" d="M137.56,21.86c.38.88.69,1.77.94,2.69l.75-1.19-1,.19.12-1.88,9.94-.25v1.62c-1.17-.04-2.38-.06-3.62-.06-.71,0-1.67.04-2.88.12l-.44.62h4c.83,0,1.39.04,1.69.12.46.12.77.46.94,1,.12.42.21,1.04.25,1.88.08,1.5-.08,2.52-.5,3.06-.21.25-.58.42-1.12.5-.33.04-.9.06-1.69.06l-.5-1.81-1,1.75-2.44-.19,2.69-4.62h-.38l-3.06,4.81-2.19-.75,2.69-3.88-.62.12-.56,1.19h-.19l-.69-.38c-.12.58-.42.98-.88,1.19-.38.17-.94.25-1.69.25l-.69-1.94v4.12h-2.44l.38-14.81,1.94-.19c1.12-.12,1.98-.1,2.56.06.46.12.77.38.94.75.17.33.19.81.06,1.44-.08.42-.17.81-.25,1.19-.25.96-.61,2.02-1.06,3.19ZM136.62,17.11l-1.12.06-.06,4c.25-.67.48-1.31.69-1.94.08-.21.25-.92.5-2.12ZM136.44,25.8l-1-3.81v3.81h1ZM139.69,15.17l5.38-.06c.88,0,1.48.19,1.81.56.21.25.35.62.44,1.12.12.83.23,2.21.31,4.12l-8.44.38.5-6.12ZM145.06,19.55v-.81l-3.38.12v.75l3.38-.06ZM145,17.55l-.12-.94-3,.06-.06.88h3.19ZM145.62,28.17l.12-2.12-1.19,2.12h1.06Z"/>
        <path class="cls-10" d="M154.75,17.55l.94-2.44,2.94.19-1,2.19,2-.06c1.38-.04,2.42.19,3.12.69.58.42.9,1.04.94,1.88l.19,5.25-.06,2.12c0,.71-.04,1.19-.12,1.44-.08.42-.29.75-.62,1-.42.33-1,.5-1.75.5-.71,0-1.4-.02-2.06-.06l-.75-2.81h2.38c.08-1.42.1-2.71.06-3.88-.04-1.08-.12-2.38-.25-3.88-1.92-.08-3.15-.1-3.69-.06-1.46.08-2.9.19-4.31.31l-.44,10.12-2.81.06.5-12.38,4.81-.19ZM160.19,26.86l-7.12.38.38-6.44,2.12-.19c1.42-.12,2.27-.19,2.56-.19.54,0,.96.15,1.25.44.29.25.48.62.56,1.12.08.38.12.65.12.81.08,1.08.12,2.44.12,4.06ZM157.75,24.92l-.19-2.56-1.69.06-.25,2.69,2.12-.19Z"/>
        <path class="cls-10" d="M172.44,15.42c-.21,2.54-.35,4.69-.44,6.44-.04,1.54-.06,3.71-.06,6.5l-2.88.06c.04-2.5.1-4.65.19-6.44.08-1.5.23-3.71.44-6.62l2.75.06Z"/>
        <path class="cls-10" d="M179.5,20.36c.12-.38.23-.77.31-1.19.17-.71.17-1.21,0-1.5-.33-.54-.85-.58-1.56-.12-.62.42-1.1,1.21-1.44,2.38-.29,1.04-.46,1.98-.5,2.81-.04,2.12.44,3.27,1.44,3.44.62.08,1.21-.15,1.75-.69.29-.29.75-.96,1.38-2l1.19,1.25c-.54,1-1.04,1.73-1.5,2.19-1.29,1.29-2.77,1.71-4.44,1.25-.83-.25-1.5-.81-2-1.69s-.77-1.9-.81-3.06c-.08-2.67.73-4.94,2.44-6.81.96-1.04,2.23-1.48,3.81-1.31,1.17.12,2,.62,2.5,1.5.33.58.48,1.27.44,2.06,0,.38-.08.88-.25,1.5h-2.75Z"/>
      </g>
    </g>
    <g>
      <rect class="cls-6" x="123.69" y="92.08" width="64" height="27"/>
      <g>
        <path class="cls-10" d="M132.19,108.86l.06-2.25,2.62-.12v-1.12l-2.69.19-.06-2.06,1.12-.06v-1.88l-.81.12.06-1.94,2.69-.12.06-1.5h2.62l-.12,1.44h2.06v1.75l-.69.06-.5,2,1.12-.12c.04.67.02,1.29-.06,1.88l-2.31.06-.06,1.25,2.44-.12-.06,1.81-1.88.06,1.56.88.38.31c-.21.29-.42.62-.62,1-.17.29-.31.62-.44,1l-1.44-.88v2.75l-2.56.12v-2.12l-.75,1.5h-.06l-1.75-1.31.06-.25,1.44-2.62-1.44.31ZM136.19,103.42l.31-2.06-.94.06v2h.62ZM139.62,112.99l.25-4.94.56-6.81-.56-1.44,5.88-1.88,1.5,1.69v.12l-4.31,1.31-.19,1.88,4.5-.19v2.06l-1.19.06-.06,1.94.12,6.44h-2.62l.12-5.12.06-3.06-1.12.12-.31,6.56.12,1.5-2.75-.25Z"/>
        <path class="cls-10" d="M148.06,101.92l5.81-.19,2.06-3.81,2.56.69-1.5,3.12,6.19-.06v2.06l-7.25.25-.38.81,7.19,5.56.5.31-1.94,2.38-6.94-5.56-2.56,5.81h-.06l-2.88-1.38-.06-.06,3.75-7.56c-.88.04-1.65.1-2.31.19-.33.04-1.02.15-2.06.31l-.12-2.88Z"/>
        <path class="cls-10" d="M164.06,102.3l1.88-.12.12-3.12,2.31-.06-.06,2.94,1.62-.06-.06,1.94-1.62.19-.12,3.06,1.69-.38.06,1.88-5.44,2.19-.44-2.44,1.81-.56.12-3.44-1.94.31.06-2.31ZM170.87,98.36l8.31-.31v2l-5.75.44-.12,1.31c1.08-.08,1.81-.15,2.19-.19,1.17-.12,2.02-.15,2.56-.06.5.08.83.35,1,.81.21.58-.02,1.67-.69,3.25l-1.31,3.06,2.38,2.06-1.38,2.25-2.12-1.75-.81,1.94-2.31-1.06,1.19-2.81-1.25-1.19-.31,5.12-2.75-.31,1.19-14.56ZM173.62,105.67l1.38,1.19,1.25-2.94-3.12.31-.25,2.12.75-.69Z"/>
      </g>
    </g>
    <g>
      <rect class="cls-1" x="375.44" y="94.07" width="62.93" height="26.55"/>
      <g>
        <path class="cls-10" d="M384.84,108.17l.31-4.98,4.36-.18.86-3.13,3.26.49-1.23,2.64c.94-.08,1.84-.08,2.7,0,.65.04,1.17.27,1.54.68.53.53.82,1.13.86,1.78l.18,2.77.06,5.9-5.16.06-6.51.43-1.54.25v-.12l.31-6.58ZM394.85,111.92l-.06-2.58-1.78.06-5.41.43-.12,2.15,7.37-.06ZM394.67,107.38l-.18-2.27-6.64.43-.18,1.84h7Z"/>
        <path class="cls-10" d="M400.69,105.59l-1.17.18-.06-1.97,1.6-.18v-3.62l2.15-.06-.06,3.5,1.23-.06.06.61,1.78-.12,5.35-.18,2.83-.06-.06,1.72-1.23.06v.74l1.23-.06.06,1.6-1.29.06v.86h1.17l.06,1.54-4.12.06v.86l4.06-.12.06,1.78-4.12.06v2.03h-2.4v-1.78l-4.18.43.06-1.97,4.24-.37v-.74l-4.12.43v-1.66l1.29-.18v-.74l-1.04.12-.18.43-.86-.86v6.94l-2.21.06v-5.41l-.55.98-.8-2.15,1.23-2.77ZM405.18,106.45l.06-.55-1.04.06v-.62h-.74l.86,1.23.86-.12ZM404.44,101.41l1.97-.18v-1.23h2.21v1.17l1.29-.12v-1.11l2.33.06-.06,1.17h2.09v1.72h-2.09v.55l-2.27.06v-.55l-1.41.06.06.49-2.15.19v-.55l-2.09.18.12-1.91ZM408,108.73l.06-.8-1.04.06v.8l.98-.06ZM408.13,106.27l.06-.68-1.04.06-.06.68,1.04-.06ZM411.14,106.15l-.06-.74-.86.06v.68h.92ZM411.08,108.61v-.86l-.86.06v.8h.86Z"/>
        <path class="cls-10" d="M415.32,110.08l.98.06.31,3.44-1.41.12.12-3.62ZM416.24,100.49l6.45-.37v1.84h-1.47l-.06.86.92-.06-.06,1.78h-1.04l-.06.55,1.11-.06.06,1.72-1.29-.06v.55c.7-.04,1.17.1,1.41.43.25.37.39.92.43,1.66l.06,2.09c.04,1.23-.16,2.11-.61,2.64-.25.33-.61.53-1.11.61-.41.08-.9.1-1.47.06l-.68-1.91,1.72.06.06-2.27c-.25.16-.47.25-.68.25-.21.04-.45-.08-.74-.37l.8,1.66-1.41.61-.8-2.83.98-.25.37.8c-.12-.45-.06-.82.18-1.11.33-.37.74-.35,1.23.06l-.06-.55-5.22.31.06-1.66.68-5.96.25-1.11ZM417.59,110.02l.74,2.83-1.48.55-.37-3.32,1.11-.06ZM418.7,107.31v-.49l-1.04.06-.06.55,1.11-.12ZM418.76,105.29l.06-.62-1.04.06-.06.61,1.04-.06ZM418.94,102.95l.06-.86-.86.06-.12.86.92-.06ZM423.61,100.86c1.07-.25,2.05-.43,2.95-.55.7-.08,1.15-.12,1.35-.12.45.04.82.21,1.11.49.57.53.86,1.09.86,1.66v5.41l-3.01.18,3.13,5.04-1.54,1.72-3.07-4.67-.18-.25.25,4.98-2.64.06c.04-3.97.16-7.13.37-9.46.08-1.23.22-2.72.43-4.49ZM427.55,105.72l-.12-3.44-1.91.18-.25,3.38,2.27-.12ZM426.32,107.99l-1.04.12v.92l1.04-1.04Z"/>
      </g>
    </g>
    <g>
      <g>
        <path class="cls-10" d="M360.89,193.6c-.05.11-.17.2-.4.21-.62,3.36-1.91,6.91-3.72,8.98-.28-.2-.7-.38-1.04-.5,1.74-1.91,3.1-5.46,3.6-8.98l1.57.29ZM368.7,202.71c-.73-2.45-2.53-6.43-4.13-9.02l1.01-.43c1.63,2.51,3.45,6.46,4.25,9.05l-1.13.41ZM366.45,191.44c.71.57,1.47,1.44,1.89,2.07l-.59.39c-.43-.63-1.24-1.54-1.89-2.07l.59-.39ZM368.49,190.71c.7.59,1.47,1.43,1.91,2.06l-.61.41c-.43-.63-1.24-1.53-1.89-2.06l.59-.41Z"/>
        <path class="cls-10" d="M382.52,192.86c-.03.07-.11.13-.2.15-.84,1.78-1.83,3.32-3.1,4.82,1.69,1.22,4.24,3.31,5.68,4.75l-.95.74c-1.37-1.43-3.86-3.56-5.45-4.71-1.37,1.5-3.72,3.54-5.97,4.71-.17-.21-.54-.56-.81-.76,4.3-2.13,7.7-6.11,9.09-9.15h-7.62v-.95h8.22l.2-.07.9.46Z"/>
      </g>
      <g>
        <path class="cls-11" d="M341.71,165.67v20.28h6.08c0-.07-.01-.15-.01-.22,0-3.8,3.09-6.88,6.88-6.88s6.88,3.09,6.88,6.88c0,.08,0,.15-.01.22h16.99c0-.07-.01-.15-.01-.22,0-3.8,3.09-6.88,6.88-6.88s6.88,3.09,6.88,6.88c0,.08,0,.15-.01.22h.81s6.34,0,6.34,0v-13.68c0-.98-.14-1.95-.45-2.87l-3.13-9.61c-.42-1.3-1.65-2.19-3.02-2.19h-43.03c-4.46,0-8.08,3.62-8.08,8.08ZM388.33,176.41v-13.72c0-.45.37-.82.82-.82h1.68c.35,0,.67.23.78.57l2.66,8.2c.17.51.25,1.04.25,1.58v4.2c0,.45-.37.82-.82.82h-4.55c-.45,0-.82-.37-.82-.82h0ZM373.81,162.28c0-.23.18-.41.41-.41h9.42c.23,0,.41.18.41.41v7.8c0,.23-.18.41-.41.41h-9.42c-.23,0-.41-.18-.41-.41v-7.8ZM359.78,170.08v-7.8c0-.23.18-.41.41-.41h9.77c.23,0,.41.18.41.41v7.8c0,.23-.18.41-.41.41h-9.77c-.23,0-.41-.18-.41-.41h0ZM346.62,165.81c0-2.17,1.77-3.93,3.93-3.93h4.43c.45,0,.82.37.82.82v6.98c0,.45-.37.82-.82.82h-7.54c-.45,0-.82-.37-.82-.82v-3.87Z"/>
        <path class="cls-11" d="M380.32,185.73c0,2.81,2.27,5.08,5.08,5.08s5.08-2.27,5.08-5.08c0-2.81-2.27-5.08-5.08-5.08-2.8,0-5.08,2.27-5.08,5.08ZM383.27,185.73c0-1.17.95-2.12,2.12-2.12s2.12.95,2.12,2.12c0,1.17-.95,2.12-2.12,2.12s-2.12-.95-2.12-2.12Z"/>
        <path class="cls-11" d="M349.58,185.73c0,2.81,2.27,5.08,5.08,5.08s5.08-2.27,5.08-5.08-2.27-5.08-5.08-5.08c-2.8,0-5.08,2.27-5.08,5.08ZM352.54,185.73c0-1.17.95-2.12,2.12-2.12s2.12.95,2.12,2.12-.95,2.12-2.12,2.12-2.12-.95-2.12-2.12Z"/>
      </g>
    </g>
    <g>
      <g>
        <path class="cls-10" d="M76.72,136.62v-3.33h-5.11v2.04h-.95v-2.75h6.05v-.94h-5.17v-.76h11.45v.76h-5.26v.94h6.18v2.75h-.99v-2.04h-5.18v3.33h-1.02ZM77.68,141.8c0,.48.2.57,1.21.57h3.62c.85,0,.99-.25,1.09-1.72.23.14.62.27.92.32-.16,1.74-.5,2.17-1.94,2.17h-3.72c-1.68,0-2.16-.25-2.16-1.36v-.49h-3.68v.74h-1.01v-4.93h10.65v4.19h-4.97v.5ZM72.17,136.21v-.63h3.69v.63h-3.69ZM72.48,134.12h3.37v.63h-3.37v-.63ZM76.69,137.82h-3.68v1.04h3.68v-1.04ZM73.01,140.58h3.68v-1.06h-3.68v1.06ZM81.61,138.86v-1.04h-3.93v1.04h3.93ZM77.68,140.58h3.93v-1.06h-3.93v1.06ZM78.63,134.12h3.44v.63h-3.44v-.63ZM78.63,136.21v-.63h3.83v.63h-3.83Z"/>
        <path class="cls-10" d="M99.87,140.3v.88h-6.58v2.07h-1.06v-2.07h-6.46v-.88h6.46v-1.2h-4.79v-5.5h4.79v-1.13h-6.02v-.87h6.02v-1.33l1.37.08c-.02.1-.09.17-.31.2v1.05h6.1v.87h-6.1v1.13h4.97v5.5h-4.97v1.2h6.58ZM88.45,134.39v1.55h3.79v-1.55h-3.79ZM88.45,138.3h3.79v-1.58h-3.79v1.58ZM97.2,134.39h-3.91v1.55h3.91v-1.55ZM97.2,138.3v-1.58h-3.91v1.58h3.91Z"/>
      </g>
      <path class="cls-11" d="M56.18,97.64v23.21c0,.95.77,1.71,1.71,1.71h5.25c-.02.17-.05.34-.05.51,0,2.04,1.65,3.69,3.69,3.69s3.69-1.65,3.69-3.69c0-.18-.03-.35-.05-.51h3.9c-.02.17-.05.34-.05.51,0,2.04,1.65,3.69,3.69,3.69s3.69-1.65,3.69-3.69c0-.18-.03-.35-.05-.51h6.89c-.02.17-.05.34-.05.51,0,2.04,1.65,3.69,3.69,3.69s3.69-1.65,3.69-3.69c0-.18-.03-.35-.05-.51h3.9c-.02.17-.05.34-.05.51,0,2.04,1.65,3.69,3.69,3.69s3.69-1.65,3.69-3.69c0-.18-.03-.35-.05-.51h5.25c.95,0,1.71-.77,1.71-1.71v-23.21c0-5.27-4.28-9.55-9.55-9.55h-8.39s8.3-6.22,8.3-6.22l-8.61-6.46-8.61,6.46,7.84,5.87.46.34h-20.56s8.3-6.22,8.3-6.22l-8.61-6.46-8.61,6.46,7.84,5.87.46.34h-8.39c-5.27,0-9.55,4.28-9.55,9.55ZM95.63,85.09l-4.29-3.22,4.29-3.22,4.29,3.22-4.29,3.22ZM91.54,100.1h9.07s0,7.78,0,7.78h-9.07s0-7.78,0-7.78ZM74.43,85.09l-4.29-3.22,4.29-3.22,4.29,3.22-4.29,3.22ZM69.45,100.1h9.07s0,7.78,0,7.78h-9.07s0-7.78,0-7.78Z"/>
    </g>
    <g>
      <g>
        <path class="cls-10" d="M488.29,153.05c-.02.07-.09.13-.19.15-.57,1.74-1.35,3.33-2.28,4.64.67.35,1.43.79,2,1.16l-.65.93c-.56-.39-1.35-.86-2-1.22-1.43,1.79-3.26,3.24-5.6,4.26-.17-.24-.57-.57-.85-.73,2.27-.95,4.08-2.37,5.49-4.03-1.15-.57-2.28-1.06-3.43-1.46l.59-.79c1.13.36,2.3.84,3.49,1.42.81-1.15,1.44-2.37,1.88-3.71h-5.26c-.95,1.43-2.22,2.84-3.58,3.85-.2-.17-.62-.48-.88-.63,2.03-1.4,3.96-3.92,4.89-6.32l1.47.31c-.06.15-.22.2-.42.18-.22.46-.57,1.15-.87,1.67h5.15l.22-.05.84.38Z"/>
        <path class="cls-10" d="M504.08,153.34c-.06.07-.14.14-.23.2-1.63,4.54-4.17,7.45-8.46,9.41-.19-.24-.48-.56-.79-.77,4.07-1.78,6.58-4.58,7.87-8.29h-5.54c-.9,1.26-2.09,2.48-3.48,3.46-.22-.2-.57-.46-.88-.64,2.11-1.47,3.89-3.61,4.95-6.08l1.47.38c-.06.14-.25.18-.45.18-.31.62-.64,1.2-.99,1.76h5.46l.19-.08.88.48Z"/>
        <path class="cls-10" d="M508.24,154.7c1.4.28,3.13.81,4.17,1.26l-.47.88c-1.02-.45-2.81-1.01-4.17-1.29l.46-.85ZM509.17,161.55c5.04-1.53,8.49-3.95,10.55-8.15.23.18.71.48.95.62-2.08,4.16-5.7,6.75-10.44,8.28.03.12-.05.29-.19.35l-.87-1.09ZM509.94,151.23c1.4.34,3.1.9,4.16,1.37l-.51.85c-1.1-.5-2.72-1.06-4.11-1.41l.46-.81Z"/>
        <path class="cls-10" d="M523.13,156.04h12.96v.99h-12.37c-.09.14-.29.24-.5.27l-.09-1.26Z"/>
      </g>
      <g>
        <path class="cls-11" d="M474.1,133.49v7.04c0,1.19.98,2.17,2.16,2.17h4.64c.26,2.68,2.53,4.78,5.28,4.78s5.02-2.1,5.28-4.78h20.99c.26,3.04,2.82,5.43,5.93,5.43s5.67-2.39,5.93-5.43h5.33c1.19,0,2.17-.98,2.17-2.17l-.22-3.8c-.54-3.61-2.85-5.4-6.61-5.4h-3.37c-1.19,0-2.76-.77-3.49-1.72l-6.12-7.94c-.73-.94-2.3-1.71-3.49-1.71h-19.26c-1.19,0-2.63.86-3.2,1.9l-4.1,7.56c-.57,1.05-2.01,1.9-3.2,1.9h-2.49c-1.19,0-2.16.97-2.16,2.17ZM515.73,142.17c0-1.47,1.19-2.65,2.65-2.65s2.65,1.19,2.65,2.65c0,1.47-1.19,2.65-2.65,2.65s-2.65-1.19-2.65-2.65ZM499,122.77h8c.56,0,1.51.47,1.85.91l5,6.48.81,1.06h-15.66s0-8.45,0-8.45ZM485.02,131.22l3.9-7.61c.22-.4.96-.84,1.41-.84h6.07s0,8.45,0,8.45h-11.38ZM483.53,142.17c0-1.47,1.19-2.65,2.65-2.65s2.65,1.19,2.65,2.65-1.19,2.65-2.65,2.65-2.65-1.19-2.65-2.65Z"/>
        <path class="cls-11" d="M506.35,115.61v3.44h1.23v-3.44c0-1.38-1.12-2.5-2.5-2.5h-11.86c-1.38,0-2.5,1.12-2.5,2.5v3.44h1.23v-3.44c0-.7.57-1.27,1.27-1.27h11.86c.7,0,1.27.57,1.27,1.27h0Z"/>
        <path class="cls-11" d="M503.77,118.62v-2.51s.01-.03.03-.03h.84s.05-.02.05-.05v-.52s-.02-.05-.05-.05h-2.46s-.05.02-.05.05v.52s.02.05.05.05h.84s.03,0,.03.03v2.51s.02.05.05.05h.62s.05-.02.05-.05Z"/>
        <path class="cls-11" d="M500.14,115.46s-.05.02-.06.05l-1.13,3.11s0,.05.04.05h.64s.05-.01.07-.05l.19-.56h1.17s.19.56.19.56c.01.03.03.05.06.05h.64s.04-.02.03-.05l-1.15-3.11s-.03-.05-.06-.05h-.62ZM500.45,116.34h.01l.38,1.12h-.77s.38-1.12.38-1.12Z"/>
        <path class="cls-11" d="M498.53,118.6l-1-1.6.93-1.5s0-.06-.03-.06h-.68s-.06.01-.08.05l-.53.87h-.01s-.53-.87-.53-.87c-.02-.04-.04-.05-.08-.05h-.68s-.04.03-.03.06l.93,1.5-1,1.6s0,.06.03.06h.68s.06-.01.08-.05l.59-.98h.01l.6.98s.04.05.08.05h.68s.05-.03.03-.06Z"/>
        <path class="cls-11" d="M494.91,115.46h-.62s-.05.02-.05.05v3.11s.02.05.05.05h.62s.05-.02.05-.05v-3.11s-.02-.05-.05-.05Z"/>
      </g>
    </g>
    <g>
      <path class="cls-10" d="M93.61,45.32v.88h-6.58v2.07h-1.06v-2.07h-6.46v-.88h6.46v-1.2h-4.79v-5.51h4.79v-1.13h-6.02v-.87h6.02v-1.33l1.37.08c-.02.1-.09.17-.31.2v1.05h6.1v.87h-6.1v1.13h4.97v5.51h-4.97v1.2h6.58ZM82.19,39.41v1.55h3.79v-1.55h-3.79ZM82.19,43.31h3.79v-1.58h-3.79v1.58ZM90.94,39.41h-3.91v1.55h3.91v-1.55ZM90.94,43.31v-1.58h-3.91v1.58h3.91Z"/>
      <g>
        <path class="cls-11" d="M57.68,25.72c0,.86.7,1.56,1.56,1.56h6.39s0-.02,0-.03h0s0,0,0-.01c0-.12-.01-.24-.01-.35,0-.39.04-.77.1-1.14.53-3.02,3.18-5.24,6.28-5.24s5.75,2.22,6.29,5.27c.06.34.09.72.09,1.11,0,.13,0,.26-.01.39h16.24s0-.02,0-.03h0s0,0,0-.01c0-.12-.01-.24-.01-.35,0-.39.04-.77.1-1.13.53-3.03,3.18-5.25,6.28-5.25s5.75,2.22,6.29,5.27c.06.34.09.72.09,1.11,0,.13,0,.26-.01.39h7.73c2.8-12.21-13.78-13.51-14.27-13.51h-.36c-.45-1.76-1.33-3.42-2.56-4.89-2.34-2.83-5.96-5-10.24-6.06-1.89-.47-3.91-.73-6.02-.73s-4.12.26-6.02.73c-3.32.82-6.24,2.31-8.48,4.26-2.16,1.88-3.69,4.18-4.33,6.72-.02.07-.03.15-.05.22-5.23,1.89-5.1,3.39-5.07,11.7ZM93.24,13.77h-12.94s-3.36-8.25-3.36-8.25c.1-.02.2-.04.3-.06,1.42-.29,2.88-.45,4.38-.45,1.83,0,3.61.22,5.31.64,3.64.9,6.72,2.71,8.7,5.1.79.95,1.37,1.96,1.74,3.01h-4.14ZM74.1,13.77h-8.23c.02-.05.04-.11.06-.16.58-1.57,1.64-3.05,3.12-4.34,1.4-1.23,3.12-2.22,5.06-2.94l3.03,7.43h-3.03Z"/>
        <path class="cls-11" d="M96.85,26.15c-.04.23-.07.48-.07.73,0,.13,0,.26.02.39.2,2.12,1.99,3.79,4.17,3.79s3.97-1.66,4.17-3.79c.01-.13.02-.26.02-.39,0-.25-.02-.5-.07-.73-.34-1.96-2.06-3.46-4.12-3.46s-3.78,1.5-4.12,3.46Z"/>
        <path class="cls-11" d="M67.88,26.15c-.04.23-.07.48-.07.73,0,.13,0,.26.02.39.2,2.12,1.99,3.79,4.17,3.79s3.97-1.66,4.17-3.79c.01-.13.02-.26.02-.39,0-.25-.02-.5-.07-.73-.34-1.96-2.06-3.46-4.12-3.46s-3.78,1.5-4.12,3.46Z"/>
      </g>
    </g>
    <line class="cls-4" x1="188.22" y1="22.38" x2="578.19" y2="22.38"/>
    <polyline class="cls-3" points="408.35 120.98 408.35 234.07 581.19 234.07"/>
    <g>
      <rect class="cls-2" x="353.69" y="221.08" width="108" height="27"/>
      <g>
        <path class="cls-10" d="M361.59,238.99l3.31-2.38.25-3.25-3.38.69.19-2.88,3.38-.31.38-3.81h2.69l-.88,15-.06.12-2.88-.06.12-2.12-1.88,1.69-1.25-2.69ZM372.34,231.42l3.44-2.19,1,2.69v.12l-4.38,2.31.19,4.75,1.69-.06v-1.88l2.56.56c.08.96.1,1.65.06,2.06-.08.92-.36,1.52-.81,1.81-.38.25-.94.4-1.69.44-1.67.12-2.81.04-3.44-.25-.5-.21-.81-.58-.94-1.12-.08-.29-.12-.56-.12-.81-.04-.67-.06-1.52-.06-2.56v-10.19l2.5-.12v4.44Z"/>
        <path class="cls-10" d="M392.78,226.99v2.38l-4.25-.12-.31.94h1.38c.79,0,1.44.35,1.94,1.06.25.33.38.92.38,1.75l.06,3.62-3.69-.06-.06.5-.06,4.06c0,.21-.08.44-.25.69-.25.33-.5.5-.75.5l-2.62-.12-.88-1.88-1.06,1.62-2.25-1.44-.06,1.62-2.69-.12,1.25-14.62c2.71-.12,5.23-.23,7.56-.31,1.17-.04,3.29-.06,6.38-.06ZM382.66,237.24l2.31,1.31-1.19,1.62,1.5-.06.06-3.31-4.25.31.69-6.56,3.56-.25.19-.81-4.25.25-.38,4.31-.5,6,2.25-2.81ZM389.03,235.11l.06-.94-2.5.12-2.5.06-.06.94,5-.19ZM386.91,232.86l2.19-.06-.06-.81-4.69.12-.06.81,2.62-.06ZM388.72,239.67c-.12-.75.12-1.33.75-1.75.38-.25.77-.33,1.19-.25.5.08.9.29,1.19.62.42.46.58,1,.5,1.62-.08.5-.38.88-.88,1.12-.58.29-1.17.27-1.75-.06-.58-.33-.92-.77-1-1.31Z"/>
        <path class="cls-10" d="M393.91,233.86l.44-6.38h.06c1.58-.12,3.04-.23,4.38-.31.96-.04,1.69.08,2.19.38.38.21.62.69.75,1.44l7.06-.12.12,1.88-.06.06-1.81.06.19,4.44c.08,1.58.06,3.17-.06,4.75-.04.83-.29,1.42-.75,1.75-.42.29-1.04.44-1.88.44h-1.38l-.88-2.69h2.38l-.06-5.94-.25-2.62-2.56.31-.19,7.5-5.38.38-2.5.31.19-5.62ZM396.78,236.8l.12-2.69-.81.12-.12,2.69.81-.12ZM396.97,232.05l.19-2.75-.81.12-.19,2.62h.81ZM398.91,236.74h.5l.12-2.88-.69.06v2.75l.06.06ZM399.59,232.05l.06-3-.44.06-.19,2.94h.56Z"/>
        <path class="cls-10" d="M413.53,227.92l2.75.81c-1.58,4.17-2.85,8.23-3.81,12.19l-2.81-.94,3.88-12.06ZM419.66,230.99l4,8.5-2.75,1.19c-.33-.83-.94-2.27-1.81-4.31-.62-1.42-1.33-2.85-2.12-4.31l2.69-1.06ZM420.34,228.11l1.25,2.75-1.5.56-1.19-2.88,1.44-.44ZM422.28,227.67l1.25,2.56-1.5.44-1.12-2.69,1.38-.31Z"/>
        <path class="cls-10" d="M432.47,230.55l-7.31,1.06-.25-3.12,5.5-.5c.79-.08,1.52-.15,2.19-.19.88-.04,1.58.04,2.12.25.96.38,1.44.98,1.44,1.81,0,.5-.15,1.02-.44,1.56-.21.42-.6.98-1.19,1.69l-1.88,2.31,5,4.06-2.44,2.12-4.62-3.88-3.81,3.94-2.44-2,2.69-2.81c.92-1,1.75-1.9,2.5-2.69,1.17-1.25,2.15-2.46,2.94-3.62Z"/>
        <path class="cls-10" d="M441.66,226.99l1.94,1.12-.25.31,3.75-.19.12-1.25h2.62l-.25,1.25h4.06v1.38l-5.75.19-4.81.44.06-1.5-.5.94-.31,8.62-.06,3.88h-2.31l.19-7.94-.69,1.38h-.12l-.94-2.5,3.25-6.12ZM442.78,234.42l6.69-.44,3.06-.06c.46,0,.77.15.94.44.17.33.25.75.25,1.25,0,.21-.02.69-.06,1.44l-2.06.12v-1.56h-1.62l-5.12.38-.06,1.31-2.25.19.25-3.06ZM444.66,230.24l4.38-.19h1.31c.46.04.85.19,1.19.44.42.33.67.81.75,1.44.04.25.08.77.12,1.56l-.12.12h-2.44l-5.62.38.44-3.75ZM445.09,236.36l6.25-.12.06,1.44-1.62.06v2.94c.04.5-.21.9-.75,1.19-.54.29-1.44.38-2.69.25l-.69-2,1.81-.06v-2.12l-2.5.31.12-1.88ZM449.97,232.24v-.88l-2.94.19-.06.81,3-.12Z"/>
      </g>
    </g>
    <g>
      <rect class="cls-6" x="375.93" y="9.08" width="64" height="27"/>
      <g>
        <path class="cls-10" d="M384.62,17.74l6.19-.56v-.38l-4.44.38.12-1.81c1.96-.08,3.62-.15,5-.19,1.62-.04,3.69-.04,6.19,0v1.38l-4.38.06-.06.38,1.81-.06h2.44c.5,0,.96.12,1.38.38.42.25.62.54.62.88v2.31l.06.44-2.81-.06.12-2.44h-.75c.33.46.33.83,0,1.12-.21.21-.48.33-.81.38-.38.04-.71,0-1-.12-.46-.25-.54-.71-.25-1.38h-.81l-.12,3.69-2.69.19.31-3.81-1.19.12c.5.38.6.77.31,1.19-.21.33-.52.54-.94.62-.29.04-.56,0-.81-.12-.33-.17-.5-.42-.5-.75,0-.21.1-.46.31-.75l-.62.06-.19,2.56-2.81.25.31-3.94ZM385.18,22.99l4.81-.44c.21,0,.46.04.75.12.38.12.62.29.75.5.12.21.17.6.12,1.19l-.06,1-4.38.38v.38l3.88-.31v1.5l-3.88.44v.19l3.81-.31-.06,1.75-3.75.25v.62l-2.56.06.56-7.31ZM387.31,21.49c.08-.46.46-.75,1.12-.88.79-.12,1.27.06,1.44.56.21.71-.15,1.17-1.06,1.38-.33.08-.67.04-1-.12-.42-.21-.58-.52-.5-.94ZM387.5,24.49v-.06l1.5-.12v-.56l-1.62.12v.56l.12.06ZM392.25,24.05l4.12-.19.06-.5-4.19.25v-1.19l5.12-.19c.67-.04,1.1.08,1.31.38.17.21.25.5.25.88v1.56h-1.31l-5.44.25.06-1.25ZM392.25,25.61l4.69-.38c.79-.08,1.29.02,1.5.31.17.21.14.48-.06.81-.08.17-.56.71-1.44,1.62l2.44.69-.94,1.62-2.88-.88-.81.94-2.06-.69.75-.75-1.06-.25.81-1.56,1.62.38.62-.62-3.25.25.06-1.5ZM393.75,21.3c0-.33.15-.6.44-.81.25-.17.54-.27.88-.31.79-.04,1.23.19,1.31.69.08.38,0,.69-.25.94-.25.21-.54.35-.88.44-.38.08-.71.04-1-.12-.33-.21-.5-.48-.5-.81Z"/>
        <path class="cls-10" d="M403.18,27.24v-1.38l-2.62.38-.06-.06.12-2.38,2.56-.06v-.81l-2.88.31.38-7.69.12-.31,4.88-.12c.75,0,1.33.1,1.75.31.54.29.81.79.81,1.5v5.69h-.25l-2.56.06v1l2.56-.06-.06,1.75-2.5.25v1.25l2.44-.38-.06,1.81-5.56,1.56-1.31.38-.75-2.56,3-.44ZM403.31,21.05l.06-1h-.69l-.06,1h.69ZM403.43,18.11l.06-1.19-.69.06-.06,1.12h.69ZM406.31,21.05v-1.19h-.88v1.19h.88ZM406.31,18.11v-1.31h-.69l-.06,1.31h.75ZM409.12,30.24l-.88-2.69,2,.06.06-4.12-1.94.25.12-2.62,3.56-.06-3.06-2.25v-.12l1.56-1.25.94.56.75-1h-.44l-3.19.56.06-2.5,5.5-.06c.62,0,1,.25,1.12.75.08.29.06.58-.06.88-.12.38-.44.88-.94,1.5l-.94,1.19.75.5-1.25,1.25h1.56c.62.04,1,.38,1.12,1,.04.29.06.58.06.88-.04.79-.17,1.67-.38,2.62l-2.31-.44.44-1.88h-.5l-.12,4.88c-.04.92-.27,1.52-.69,1.81-.17.12-.44.21-.81.25-.29.04-1,.06-2.12.06Z"/>
        <path class="cls-10" d="M423.68,15.42c-.21,2.54-.35,4.69-.44,6.44-.04,1.54-.06,3.71-.06,6.5l-2.88.06c.04-2.5.1-4.65.19-6.44.08-1.5.23-3.71.44-6.62l2.75.06Z"/>
        <path class="cls-10" d="M430.75,20.36c.12-.38.23-.77.31-1.19.17-.71.17-1.21,0-1.5-.33-.54-.85-.58-1.56-.12-.62.42-1.1,1.21-1.44,2.38-.29,1.04-.46,1.98-.5,2.81-.04,2.12.44,3.27,1.44,3.44.62.08,1.21-.15,1.75-.69.29-.29.75-.96,1.38-2l1.19,1.25c-.54,1-1.04,1.73-1.5,2.19-1.29,1.29-2.77,1.71-4.44,1.25-.83-.25-1.5-.81-2-1.69s-.77-1.9-.81-3.06c-.08-2.67.73-4.94,2.44-6.81.96-1.04,2.23-1.48,3.81-1.31,1.17.12,2,.62,2.5,1.5.33.58.48,1.27.44,2.06,0,.38-.08.88-.25,1.5h-2.75Z"/>
      </g>
    </g>
    <g>
      <rect class="cls-1" x="251.68" y="94.07" width="62.93" height="26.55"/>
      <g>
        <path class="cls-10" d="M260.04,105.47l3.5-.25.06-1.47-3.13.37.06-2.15,5.59-.43.31-1.54,2.7.12-.37,1.29,5.59.06-.06,1.72h-2.52l-.37,1.78h3.32l.06,1.91-14.81.86.06-2.27ZM262.38,109.28l.18-.92c3.44-.45,5.88-.72,7.31-.8,1.35-.08,2.21.02,2.58.31.37.29.57.66.62,1.11l.43,5.22-.06.06-11.37.68.31-5.65ZM270.49,112.48v-.92l-5.41.43-.06.92,5.47-.43ZM270.36,110.2l-.06-.86-5.04.43-.12.8,5.22-.37ZM268.77,105.1l.37-1.78-2.76.12-.25,1.72,2.64-.06Z"/>
        <path class="cls-10" d="M280.2,106.09l.12-3.99c-.86.12-1.58.25-2.15.37-.41.08-1.09.29-2.03.61l.12-2.46,3.69-.68c.74-.12,1.35-.02,1.84.31.66.45.98,1.02.98,1.72v5.78l-.06,1.91-.12,2.27c-.08,1.23-.39,2.03-.92,2.4-.25.16-.59.29-1.04.37-.25.04-.59.06-1.04.06l-1.47.06-.62-2.27,2.27-.12.31-3.44c-.49.25-1,.53-1.54.86-.49.29-1.07.7-1.72,1.23l-1.11-2.15v-.18l4.49-2.64ZM275.96,105.1c-.08-.49.02-.92.31-1.29.41-.49.9-.7,1.47-.61.74.12,1.17.51,1.29,1.17.08.49-.02.92-.31,1.29-.25.33-.57.53-.98.61-1.02.21-1.62-.18-1.78-1.17ZM287.45,105.96l-.25-3.93-3.75.8.12-2.4c.7-.12,1.47-.27,2.33-.43,1.19-.21,2.05-.27,2.58-.18.9.12,1.39.82,1.47,2.09l.55,8.67c.04.74.04,1.35,0,1.84-.04.66-.21,1.15-.49,1.47-.29.41-.74.66-1.35.74-.37.08-1.29.12-2.77.12l-.68-2.21,2.4-.06-.12-4.06-3.32,2.21-1.29-2.15,4.55-2.52ZM283.51,104.98c-.04-.98.37-1.6,1.23-1.84.82-.25,1.39-.04,1.72.61.25.45.25.92,0,1.41-.21.45-.55.76-1.04.92-.49.16-.96.1-1.41-.19-.33-.2-.49-.51-.49-.92Z"/>
        <path class="cls-10" d="M291.56,110.08l.98.06.31,3.44-1.41.12.12-3.62ZM292.49,100.49l6.45-.37v1.84h-1.47l-.06.86.92-.06-.06,1.78h-1.04l-.06.55,1.11-.06.06,1.72-1.29-.06v.55c.7-.04,1.17.1,1.41.43.25.37.39.92.43,1.66l.06,2.09c.04,1.23-.16,2.11-.61,2.64-.25.33-.61.53-1.11.61-.41.08-.9.1-1.47.06l-.68-1.91,1.72.06.06-2.27c-.25.16-.47.25-.68.25-.21.04-.45-.08-.74-.37l.8,1.66-1.41.61-.8-2.83.98-.25.37.8c-.12-.45-.06-.82.18-1.11.33-.37.74-.35,1.23.06l-.06-.55-5.22.31.06-1.66.68-5.96.25-1.11ZM293.84,110.02l.74,2.83-1.48.55-.37-3.32,1.11-.06ZM294.94,107.31v-.49l-1.04.06-.06.55,1.11-.12ZM295.01,105.29l.06-.62-1.04.06-.06.61,1.04-.06ZM295.19,102.95l.06-.86-.86.06-.12.86.92-.06ZM299.86,100.86c1.07-.25,2.05-.43,2.95-.55.7-.08,1.15-.12,1.35-.12.45.04.82.21,1.11.49.57.53.86,1.09.86,1.66v5.41l-3.01.18,3.13,5.04-1.54,1.72-3.07-4.67-.18-.25.25,4.98-2.64.06c.04-3.97.16-7.13.37-9.46.08-1.23.22-2.72.43-4.49ZM303.79,105.72l-.12-3.44-1.91.18-.25,3.38,2.27-.12ZM302.56,107.99l-1.04.12v.92l1.04-1.04Z"/>
      </g>
    </g>
    <g>
      <path class="cls-10" d="M490.49,222.52c-.48.56-.98,1.08-1.46,1.51-.09-.17-.35-.52-.49-.68,1.06-.91,2.33-2.41,3.12-3.84l1,.35c-.05.1-.19.12-.31.11-.29.49-.64,1-1.01,1.49l.25.07c-.03.07-.11.13-.27.14v6.34h-.84v-5.49ZM492.39,217.24c-.05.11-.19.11-.29.1-.72.83-1.98,1.94-3.02,2.7-.11-.16-.35-.44-.5-.59.98-.67,2.19-1.73,2.83-2.57l.98.36ZM497.04,224.49v2.39c.57.11,1.18.16,1.82.16.31,0,1.83,0,2.26-.01-.12.18-.25.54-.29.76h-2.03c-2.18,0-3.87-.41-4.94-2.28-.32,1.07-.81,1.96-1.53,2.57-.15-.14-.44-.37-.65-.48,1.18-.97,1.67-2.82,1.85-5l1.09.13c-.01.1-.11.14-.27.16-.05.52-.12,1.02-.21,1.51.45,1.2,1.17,1.87,2.06,2.23v-4.8h-3.73v-.73h3.73v-1.86h-3.03v-.71h3.03v-1.67l1.12.06c-.01.08-.09.14-.27.17v1.44h3.11v.71h-3.11v1.86h3.88v.73h-3.63c-.03.06-.11.11-.25.13v1.83h3.16v.71h-3.16Z"/>
      <path class="cls-10" d="M508.57,220.76h5.53v.77h-5.28c-.03.07-.11.12-.27.16v2.76c0,.88-.48.91-2.6.91-.04-.23-.17-.52-.29-.74.82.02,1.53.02,1.74.02.21-.01.27-.06.27-.2v-2.9h-5.53v-.77h2.02v-2.9l1.16.07c-.01.08-.08.14-.25.17v2.66h2.6v-3.89l1.17.07c-.01.08-.08.14-.27.16v1.25h4.24v.74h-4.24v1.67ZM506.05,222.32c-.04.07-.15.12-.29.1-.69.92-1.77,1.92-2.72,2.55-.17-.14-.52-.37-.73-.49.96-.58,2.02-1.57,2.67-2.52l1.08.36ZM512.08,223.95c-.03.07-.11.11-.27.12-1.14,2.42-3.71,3.57-8.11,4.03-.07-.24-.25-.56-.44-.77,4.2-.35,6.67-1.36,7.71-3.65l1.1.26ZM513.28,224.96c-.5-.73-1.65-1.83-2.67-2.59l.72-.41c1.02.73,2.19,1.79,2.72,2.54l-.77.46Z"/>
      <path class="cls-10" d="M521.54,227v-8.05h-.03l-1.63.85-.27-.74,2.06-1.04h.94v8.98h-1.08Z"/>
      <path class="cls-10" d="M531.59,218.02v.83h-3.58l-.41,2.54c.21-.02.42-.05.77-.05,1.77,0,3.35.95,3.35,2.76s-1.46,3.05-3.43,3.05c-1,0-1.83-.26-2.29-.53l.32-.78c.37.23,1.1.5,1.97.5,1.25,0,2.33-.83,2.31-2.12,0-1.24-.88-2.1-2.74-2.1-.53,0-.94.04-1.28.08l.62-4.19h4.37Z"/>
      <path class="cls-10" d="M541.52,217.49c-.05.08-.15.12-.32.11-.93,1.89-2.47,3.67-4.16,4.75-.16-.16-.48-.43-.7-.58,1.65-1.01,3.18-2.75,4.04-4.63l1.14.35ZM546.17,221.49h.21s.5.04.5.04c0,.08-.01.19-.01.29-.21,3.87-.41,5.26-.88,5.72-.37.38-.77.42-1.58.42-.45,0-1.02-.01-1.6-.05-.01-.24-.13-.58-.29-.8.9.07,1.77.08,2.09.08.28,0,.44-.02.57-.16.35-.31.56-1.56.73-4.75h-3.65c-.36,2.3-1.1,4.63-4.67,5.78-.12-.2-.36-.52-.57-.68,3.22-.97,3.97-2.99,4.29-5.1h-2.86v-.79h7.71ZM545,217.12c.88,1.66,2.62,3.51,4.09,4.43-.24.17-.57.49-.74.72-1.49-1.07-3.2-3.03-4.2-4.83l.85-.31Z"/>
    </g>
  </g>
</svg>