<?xml version="1.0" encoding="UTF-8"?>
<svg id="_レイヤー_2" data-name="レイヤー 2" xmlns="http://www.w3.org/2000/svg" viewBox="0 0 558.42 285.58">
  <defs>
    <style>
      .cls-1 {
        stroke-linecap: round;
        stroke-width: 4.73px;
      }

      .cls-1, .cls-2, .cls-3, .cls-4, .cls-5, .cls-6 {
        fill: none;
        stroke: #231815;
        stroke-miterlimit: 10;
      }

      .cls-2 {
        stroke-width: 1.3px;
      }

      .cls-7 {
        fill: #fff;
      }

      .cls-8 {
        fill: #e09c2e;
      }

      .cls-3 {
        stroke-width: .98px;
      }

      .cls-9 {
        fill: #231815;
      }

      .cls-4 {
        stroke-width: 1.23px;
      }

      .cls-6 {
        stroke-width: 1.22px;
      }

      .cls-10 {
        fill: #e09c2f;
      }
    </style>
  </defs>
  <g id="_レイヤー_1-2" data-name="レイヤー 1">
    <g>
      <g>
        <line class="cls-1" x1="176.83" y1="100.11" x2="486.1" y2="100.11"/>
        <g>
          <rect class="cls-7" x="176.83" y="98.71" width="3.32" height="2.8"/>
          <path class="cls-7" d="M476.06,101.51h-6.73v-2.8h6.73v2.8ZM462.61,101.51h-6.72v-2.8h6.72v2.8ZM449.16,101.51h-6.73v-2.8h6.73v2.8ZM435.71,101.51h-6.73v-2.8h6.73v2.8ZM422.26,101.51h-6.73v-2.8h6.73v2.8ZM408.8,101.51h-6.72v-2.8h6.72v2.8ZM395.35,101.51h-6.73v-2.8h6.73v2.8ZM381.9,101.51h-6.73v-2.8h6.73v2.8ZM368.45,101.51h-6.72v-2.8h6.72v2.8ZM355,101.51h-6.73v-2.8h6.73v2.8ZM341.55,101.51h-6.73v-2.8h6.73v2.8ZM328.1,101.51h-6.72v-2.8h6.72v2.8ZM314.65,101.51h-6.73v-2.8h6.73v2.8ZM301.2,101.51h-6.72v-2.8h6.72v2.8ZM287.75,101.51h-6.73v-2.8h6.73v2.8ZM274.3,101.51h-6.73v-2.8h6.73v2.8ZM260.85,101.51h-6.72v-2.8h6.72v2.8ZM247.4,101.51h-6.73v-2.8h6.73v2.8ZM233.95,101.51h-6.73v-2.8h6.73v2.8ZM220.5,101.51h-6.72v-2.8h6.72v2.8ZM207.05,101.51h-6.73v-2.8h6.73v2.8ZM193.6,101.51h-6.73v-2.8h6.73v2.8Z"/>
          <rect class="cls-7" x="482.78" y="98.71" width="3.32" height="2.8"/>
        </g>
      </g>
      <line class="cls-5" x1="22.97" y1="29.58" x2="487.97" y2="29.58"/>
      <g>
        <rect class="cls-8" width="29.95" height="285.58"/>
        <g>
          <path class="cls-9" d="M10.26,74.27l.9-6.05,2.77.58-.75,5.18,2.77-.29c.8-.09,1.47.34,2.02,1.29.6,1.06.9,2.79.9,5.18l.07,11.66c.05,5.76-1.02,8.64-3.22,8.64h-3.22l-.45-5.61,3.74-.14-.22-15.83-3.07.43-2.7,21.16-3.15-1.87,2.7-18.43-2.77.72v-5.76l3.67-.86ZM22.39,73.98c.35,2.98.6,5.33.75,7.05.15,1.92.32,5.09.52,9.5l-3.07.72c-.15-3.36-.3-6.24-.45-8.64-.1-1.73-.33-4.32-.67-7.77l2.92-.86Z"/>
          <path class="cls-9" d="M14.9,124.96c-1.25.19-2.32.43-3.22.72-.65.19-1.97.77-3.97,1.73l.15-6.48,8.01-1.73c.85-.19,1.62-.24,2.32-.14.9.1,1.47.63,1.72,1.58.2.77.22,1.58.07,2.45-.15.96-.6,2.02-1.35,3.17l-2.17,3.31c.75-.19,1.3-.19,1.65,0,.6.29.9,1.06.9,2.3v1.87c0,.67.05,1.2.15,1.58.15.48.5.67,1.05.58l1.27-.29,1.57-.72-.37,6.05c-1.5.38-2.82.62-3.97.72-.95.09-1.67-.14-2.17-.72-.75-.86-1.07-2.01-.97-3.45l.15-2.59c.05-.48-.05-.77-.3-.86-.45-.19-1.07,0-1.87.58-.65.48-1.22,1.1-1.72,1.87l-3.15,5.04-2.25-4.32,8.46-12.24ZM12.06,109.71l7.41,3.31-1.35,4.75-7.49-3.89,1.42-4.17Z"/>
          <path class="cls-9" d="M23.21,151.69l.15,4.75-2.7.14c-2.05,1.34-3.57,2.73-4.57,4.17-2.1,3.07-3.22,6.14-3.37,9.21-.15,2.78.42,4.56,1.72,5.33.85.48,1.95.48,3.29,0,.7-.29,1.95-.91,3.74-1.87l1.05,5.33c-3.29,2.21-5.89,3.17-7.79,2.88-2.25-.29-3.82-1.87-4.72-4.75-.75-2.4-1-5.08-.75-8.06.25-2.78.87-5.23,1.87-7.34.55-1.15,1.45-2.54,2.7-4.17-1.7.29-2.82.48-3.37.58-.5.1-1.7.53-3.59,1.29l-.22-6.91c3.19-.38,5.77-.62,7.71-.72,2.1-.09,5.04-.05,8.84.14ZM19.84,159.89l1.27,6.62-1.72,1.44-1.27-7.2,1.72-.86ZM22.02,158.74l1.27,6.05-1.72,1.3-1.2-6.48,1.65-.86Z"/>
          <path class="cls-9" d="M5.62,213.26l2.55-10.65-2.47.58v-5.76h3.29l.22-6.62,3.07-.14-.15,6.76h2.02l-.07,4.32-1.8.14,2.47,5.47-1.57,5.61-1.27-3.46-.07,16.12h-3.29l.15-11.8-1.42,5.47-1.65-6.05ZM18.87,196.99l-.15-6.62,3.29.14.15,6.33,1.87.14.07,5.18h-1.8v18.42c.05,1.73-.23,3.12-.82,4.17-.35.48-.87.72-1.57.72-1.2,0-2.4-.05-3.59-.14l-.6-5.76h3.52l-.22-17.13-4.87.86.15-5.9,4.57-.43ZM14.83,209.8c0-2.49.6-3.79,1.8-3.89.5,0,.97.29,1.42.86s.72,1.34.82,2.3c.15,1.15.07,2.16-.22,3.02-.35,1.15-.85,1.78-1.5,1.87-.6.1-1.1-.19-1.5-.86-.55-.86-.82-1.97-.82-3.31Z"/>
        </g>
      </g>
      <g>
        <path class="cls-9" d="M299.23,19.71v-8.05h-.02l-1.47.85-.24-.74,1.86-1.04h.85v8.98h-.97Z"/>
        <path class="cls-9" d="M304.24,14.95c.41-.6,1.14-1.1,2.1-1.1,1.52,0,2.54,1.14,2.54,2.87s-1.01,3.14-2.76,3.14-2.93-1.45-2.93-3.78,1.13-4.93,4.04-5.41c.34-.05.63-.08.84-.08v.83c-2.48,0-3.67,1.81-3.88,3.54h.04ZM307.87,16.79c0-1.38-.74-2.18-1.82-2.18s-1.86,1.03-1.86,1.7c.01,1.64.71,2.77,1.96,2.77,1.04,0,1.73-.94,1.73-2.29Z"/>
        <path class="cls-9" d="M309.82,15.25c0-3.14,1.22-4.67,2.9-4.67s2.75,1.61,2.75,4.55c0,3.12-1.09,4.72-2.88,4.72-1.63,0-2.77-1.61-2.77-4.61ZM314.46,15.18c0-2.24-.54-3.79-1.8-3.79-1.07,0-1.82,1.43-1.82,3.79s.66,3.86,1.79,3.86c1.33,0,1.83-1.73,1.83-3.86Z"/>
        <path class="cls-9" d="M323.88,10.2c-.05.08-.13.12-.29.11-.84,1.9-2.23,3.67-3.75,4.75-.14-.16-.43-.43-.64-.58,1.49-1.01,2.87-2.75,3.65-4.63l1.03.35ZM328.08,14.21h.19s.46.04.46.04c0,.08-.01.19-.01.29-.19,3.87-.37,5.26-.79,5.72-.33.38-.7.42-1.43.42-.41,0-.92-.01-1.44-.05-.01-.24-.12-.58-.26-.8.82.07,1.59.08,1.88.08.25,0,.4-.02.52-.16.31-.31.5-1.56.66-4.75h-3.3c-.32,2.3-1,4.63-4.21,5.78-.11-.2-.32-.52-.52-.68,2.9-.97,3.59-2.99,3.87-5.1h-2.58v-.79h6.96ZM327.02,9.83c.79,1.66,2.36,3.51,3.69,4.43-.22.17-.52.49-.67.72-1.34-1.07-2.89-3.03-3.79-4.83l.77-.31Z"/>
      </g>
      <g>
        <path class="cls-9" d="M83.23,19.71h-.95v-2.52h-3.92v-.64l3.84-5.83h1.03v5.7h1.22v.77h-1.22v2.52ZM79.37,16.43h2.91v-3.19c0-.49.02-.97.05-1.44h-.05c-.28.55-.49.94-.72,1.34l-2.19,3.26v.02Z"/>
        <path class="cls-9" d="M90.31,10.73v.83h-3.23l-.37,2.54c.19-.02.38-.05.7-.05,1.6,0,3.02.95,3.02,2.76s-1.32,3.05-3.09,3.05c-.9,0-1.66-.26-2.06-.53l.29-.78c.34.23,1,.5,1.77.5,1.13,0,2.1-.83,2.09-2.12,0-1.24-.79-2.1-2.47-2.1-.48,0-.85.04-1.15.08l.56-4.19h3.95Z"/>
        <path class="cls-9" d="M99.27,10.2c-.05.08-.13.12-.29.11-.84,1.9-2.23,3.67-3.75,4.75-.14-.16-.43-.43-.64-.58,1.49-1.01,2.87-2.75,3.65-4.63l1.03.35ZM103.47,14.21h.19s.46.04.46.04c0,.08-.01.19-.01.29-.19,3.87-.37,5.26-.79,5.72-.34.38-.7.42-1.43.42-.41,0-.92-.01-1.44-.05-.01-.24-.12-.58-.26-.8.82.07,1.59.08,1.88.08.25,0,.4-.02.52-.16.31-.31.5-1.56.66-4.75h-3.3c-.32,2.3-1,4.63-4.21,5.78-.11-.2-.32-.52-.52-.68,2.9-.97,3.59-2.99,3.87-5.1h-2.58v-.79h6.96ZM102.41,9.83c.79,1.66,2.36,3.51,3.69,4.43-.22.17-.52.49-.67.72-1.34-1.07-2.89-3.03-3.79-4.83l.77-.31Z"/>
      </g>
      <g>
        <path class="cls-9" d="M240.22,89.71h-.95v-2.52h-3.92v-.64l3.84-5.83h1.03v5.7h1.22v.77h-1.22v2.52ZM236.36,86.43h2.91v-3.19c0-.49.02-.97.05-1.44h-.05c-.28.55-.49.94-.72,1.34l-2.19,3.26v.02Z"/>
        <path class="cls-9" d="M247.3,80.73v.83h-3.23l-.37,2.54c.19-.02.38-.05.7-.05,1.6,0,3.02.95,3.02,2.76s-1.32,3.05-3.09,3.05c-.9,0-1.66-.26-2.06-.53l.29-.78c.34.23,1,.5,1.77.5,1.13,0,2.1-.83,2.09-2.12,0-1.24-.79-2.1-2.47-2.1-.48,0-.85.04-1.15.08l.56-4.19h3.95Z"/>
        <path class="cls-9" d="M256.27,80.2c-.05.08-.13.12-.29.11-.84,1.9-2.23,3.67-3.75,4.75-.14-.16-.43-.43-.64-.58,1.49-1.01,2.87-2.75,3.65-4.63l1.03.35ZM260.47,84.21h.19s.46.04.46.04c0,.08-.01.19-.01.29-.19,3.87-.37,5.26-.79,5.72-.34.38-.7.42-1.43.42-.41,0-.92-.01-1.44-.05-.01-.24-.12-.58-.26-.8.82.07,1.59.08,1.88.08.25,0,.4-.02.52-.16.31-.31.5-1.56.66-4.75h-3.3c-.32,2.3-1,4.63-4.21,5.78-.11-.2-.32-.52-.52-.68,2.9-.97,3.59-2.99,3.87-5.1h-2.58v-.79h6.96ZM259.41,79.83c.79,1.66,2.36,3.51,3.69,4.43-.22.17-.52.49-.67.72-1.34-1.07-2.89-3.03-3.79-4.83l.77-.31Z"/>
      </g>
      <g>
        <path class="cls-9" d="M187.22,143.71h-.95v-2.52h-3.92v-.64l3.84-5.83h1.03v5.7h1.22v.77h-1.22v2.52ZM183.36,140.43h2.91v-3.19c0-.49.02-.97.05-1.44h-.05c-.28.55-.49.94-.72,1.34l-2.19,3.26v.02Z"/>
        <path class="cls-9" d="M194.3,134.73v.83h-3.23l-.37,2.54c.19-.02.38-.05.7-.05,1.6,0,3.02.95,3.02,2.76s-1.32,3.05-3.09,3.05c-.9,0-1.66-.26-2.06-.53l.29-.78c.34.23,1,.5,1.77.5,1.13,0,2.1-.83,2.09-2.12,0-1.24-.79-2.1-2.47-2.1-.48,0-.85.04-1.15.08l.56-4.19h3.95Z"/>
        <path class="cls-9" d="M203.27,134.2c-.05.08-.13.12-.29.11-.84,1.9-2.23,3.67-3.75,4.75-.14-.16-.43-.43-.64-.58,1.49-1.01,2.87-2.75,3.65-4.63l1.03.35ZM207.47,138.21h.19s.46.04.46.04c0,.08-.01.19-.01.29-.19,3.87-.37,5.26-.79,5.72-.34.38-.7.42-1.43.42-.41,0-.92-.01-1.44-.05-.01-.24-.12-.58-.26-.8.82.07,1.59.08,1.88.08.25,0,.4-.02.52-.16.31-.31.5-1.56.66-4.75h-3.3c-.32,2.3-1,4.63-4.21,5.78-.11-.2-.32-.52-.52-.68,2.9-.97,3.59-2.99,3.87-5.1h-2.58v-.79h6.96ZM206.41,133.83c.79,1.66,2.36,3.51,3.69,4.43-.22.17-.52.49-.67.72-1.34-1.07-2.89-3.03-3.79-4.83l.77-.31Z"/>
      </g>
      <g>
        <path class="cls-9" d="M377.23,89.71v-8.05h-.02l-1.47.85-.24-.74,1.86-1.04h.85v8.98h-.97Z"/>
        <path class="cls-9" d="M381.21,85.25c0-3.14,1.22-4.67,2.9-4.67s2.75,1.61,2.75,4.55c0,3.12-1.09,4.72-2.88,4.72-1.63,0-2.77-1.61-2.77-4.61ZM385.85,85.18c0-2.24-.54-3.79-1.8-3.79-1.07,0-1.82,1.43-1.82,3.79s.66,3.86,1.79,3.86c1.33,0,1.83-1.73,1.83-3.86Z"/>
        <path class="cls-9" d="M392.92,80.73v.83h-3.23l-.37,2.54c.19-.02.38-.05.7-.05,1.6,0,3.02.95,3.02,2.76s-1.32,3.05-3.09,3.05c-.9,0-1.66-.26-2.06-.53l.29-.78c.34.23,1,.5,1.78.5,1.13,0,2.1-.83,2.09-2.12,0-1.24-.79-2.1-2.47-2.1-.48,0-.85.04-1.15.08l.56-4.19h3.95Z"/>
        <path class="cls-9" d="M401.88,80.2c-.05.08-.13.12-.29.11-.84,1.9-2.23,3.67-3.75,4.75-.14-.16-.43-.43-.64-.58,1.49-1.01,2.87-2.75,3.65-4.63l1.03.35ZM406.08,84.21h.19s.46.04.46.04c0,.08-.01.19-.01.29-.19,3.87-.37,5.26-.79,5.72-.33.38-.7.42-1.43.42-.41,0-.92-.01-1.44-.05-.01-.24-.12-.58-.26-.8.82.07,1.59.08,1.88.08.25,0,.4-.02.52-.16.31-.31.5-1.56.66-4.75h-3.3c-.32,2.3-1,4.63-4.21,5.78-.11-.2-.32-.52-.52-.68,2.9-.97,3.59-2.99,3.87-5.1h-2.58v-.79h6.96ZM405.02,79.83c.79,1.66,2.36,3.51,3.69,4.43-.22.17-.52.49-.67.72-1.34-1.07-2.89-3.03-3.79-4.83l.77-.31Z"/>
      </g>
      <g>
        <path class="cls-9" d="M82.25,90.11h-1.05v-2.52h-4.35v-.64l4.25-5.83h1.14v5.7h1.36v.77h-1.36v2.52ZM77.98,86.82h3.23v-3.19c0-.49.03-.97.05-1.44h-.05c-.31.55-.54.94-.8,1.34l-2.43,3.26v.02Z"/>
        <path class="cls-9" d="M84.45,85.65c0-3.14,1.36-4.67,3.22-4.67s3.04,1.61,3.04,4.55c0,3.12-1.21,4.72-3.19,4.72-1.81,0-3.07-1.61-3.07-4.61ZM89.59,85.58c0-2.24-.6-3.79-1.99-3.79-1.18,0-2.02,1.43-2.02,3.79s.73,3.86,1.98,3.86c1.48,0,2.03-1.73,2.03-3.86Z"/>
        <path class="cls-9" d="M100.03,80.6c-.05.08-.15.12-.32.11-.93,1.9-2.47,3.67-4.16,4.75-.16-.16-.48-.43-.7-.58,1.65-1.01,3.18-2.75,4.04-4.63l1.14.35ZM104.68,84.61h.21s.5.04.5.04c0,.08-.01.19-.01.29-.21,3.87-.41,5.26-.88,5.72-.37.38-.77.42-1.58.42-.45,0-1.02-.01-1.6-.05-.01-.24-.13-.58-.29-.8.9.07,1.77.08,2.09.08.28,0,.44-.02.57-.16.35-.31.56-1.56.73-4.75h-3.65c-.36,2.3-1.1,4.63-4.67,5.78-.12-.2-.36-.52-.57-.68,3.22-.97,3.97-2.99,4.29-5.1h-2.86v-.79h7.71ZM103.51,80.23c.88,1.66,2.62,3.51,4.09,4.43-.24.17-.57.49-.74.72-1.49-1.07-3.2-3.03-4.2-4.83l.85-.31Z"/>
      </g>
      <g>
        <path class="cls-9" d="M43.96,212.64c-.48.56-.98,1.08-1.46,1.51-.09-.17-.35-.52-.49-.68,1.06-.91,2.33-2.41,3.12-3.84l1,.35c-.05.1-.19.12-.31.11-.29.49-.64,1-1.01,1.49l.25.07c-.03.07-.11.13-.27.14v6.34h-.84v-5.49ZM45.86,207.35c-.05.11-.19.11-.29.1-.72.83-1.98,1.94-3.02,2.7-.11-.16-.35-.44-.5-.59.98-.67,2.19-1.73,2.83-2.57l.98.36ZM50.51,214.6v2.39c.57.11,1.18.16,1.82.16.31,0,1.83,0,2.26-.01-.12.18-.25.54-.29.76h-2.03c-2.18,0-3.87-.41-4.94-2.28-.32,1.07-.81,1.96-1.53,2.57-.15-.14-.44-.37-.65-.48,1.18-.97,1.67-2.82,1.85-5l1.09.13c-.01.1-.11.14-.27.16-.05.52-.12,1.02-.21,1.51.45,1.2,1.17,1.87,2.06,2.23v-4.8h-3.73v-.73h3.73v-1.86h-3.03v-.71h3.03v-1.67l1.12.06c-.01.08-.09.14-.27.17v1.44h3.11v.71h-3.11v1.86h3.88v.73h-3.63c-.03.06-.11.11-.25.13v1.84h3.16v.71h-3.16Z"/>
        <path class="cls-9" d="M62.04,210.87h5.53v.77h-5.28c-.03.07-.11.12-.27.16v2.76c0,.88-.48.91-2.6.91-.04-.23-.17-.52-.29-.74.82.02,1.53.02,1.74.02.21-.01.27-.06.27-.2v-2.9h-5.53v-.77h2.02v-2.9l1.16.07c-.01.08-.08.14-.25.17v2.66h2.6v-3.89l1.17.07c-.01.08-.08.14-.27.16v1.25h4.24v.74h-4.24v1.67ZM59.52,212.43c-.04.07-.15.12-.29.1-.69.92-1.77,1.92-2.72,2.55-.17-.14-.52-.37-.73-.49.96-.58,2.02-1.57,2.67-2.52l1.08.36ZM65.55,214.06c-.03.07-.11.11-.27.12-1.14,2.42-3.71,3.57-8.11,4.03-.07-.24-.25-.56-.44-.77,4.2-.35,6.67-1.36,7.71-3.65l1.1.26ZM66.75,215.07c-.5-.73-1.65-1.83-2.67-2.59l.72-.41c1.02.73,2.19,1.79,2.72,2.54l-.77.46Z"/>
        <path class="cls-9" d="M75.01,217.11v-8.05h-.03l-1.63.85-.27-.74,2.06-1.04h.94v8.98h-1.08Z"/>
        <path class="cls-9" d="M85.06,208.13v.83h-3.58l-.41,2.54c.21-.02.43-.05.77-.05,1.77,0,3.35.95,3.35,2.76s-1.46,3.05-3.43,3.05c-1,0-1.83-.26-2.29-.53l.32-.78c.37.23,1.1.5,1.97.5,1.25,0,2.33-.83,2.31-2.12,0-1.24-.88-2.1-2.74-2.1-.53,0-.94.04-1.28.08l.62-4.19h4.37Z"/>
        <path class="cls-9" d="M94.99,207.6c-.05.08-.15.12-.32.11-.93,1.9-2.47,3.67-4.16,4.75-.16-.16-.48-.43-.7-.58,1.65-1.01,3.18-2.75,4.04-4.63l1.14.35ZM99.64,211.61h.21s.5.04.5.04c0,.08-.01.19-.01.29-.21,3.87-.41,5.26-.88,5.72-.37.38-.77.42-1.58.42-.45,0-1.02-.01-1.6-.05-.01-.24-.13-.58-.29-.8.9.07,1.77.08,2.09.08.28,0,.44-.02.57-.16.35-.31.56-1.56.73-4.75h-3.65c-.36,2.3-1.1,4.63-4.67,5.78-.12-.2-.36-.52-.57-.68,3.22-.97,3.97-2.99,4.29-5.1h-2.86v-.79h7.71ZM98.47,207.23c.88,1.66,2.62,3.51,4.09,4.43-.24.17-.57.49-.74.72-1.49-1.07-3.2-3.03-4.2-4.83l.85-.31Z"/>
      </g>
      <g>
        <path class="cls-9" d="M522.94,136.63v-3.33h-5.11v2.04h-.95v-2.75h6.05v-.94h-5.17v-.76h11.45v.76h-5.26v.94h6.18v2.75h-.99v-2.04h-5.18v3.33h-1.02ZM523.9,141.82c0,.48.2.57,1.21.57h3.62c.85,0,.99-.25,1.09-1.72.23.14.62.27.92.32-.15,1.74-.5,2.17-1.94,2.17h-3.72c-1.68,0-2.16-.25-2.16-1.36v-.49h-3.68v.74h-1.01v-4.93h10.65v4.19h-4.97v.5ZM518.39,136.23v-.63h3.69v.63h-3.69ZM518.7,134.14h3.37v.63h-3.37v-.63ZM522.91,137.84h-3.68v1.04h3.68v-1.04ZM519.23,140.6h3.68v-1.06h-3.68v1.06ZM527.83,138.87v-1.04h-3.93v1.04h3.93ZM523.9,140.6h3.93v-1.06h-3.93v1.06ZM524.85,134.14h3.45v.63h-3.45v-.63ZM524.85,136.23v-.63h3.83v.63h-3.83Z"/>
        <path class="cls-9" d="M546.08,140.32v.88h-6.58v2.07h-1.06v-2.07h-6.46v-.88h6.46v-1.2h-4.79v-5.51h4.79v-1.13h-6.02v-.87h6.02v-1.33l1.37.08c-.02.1-.09.17-.31.2v1.05h6.1v.87h-6.1v1.13h4.97v5.51h-4.97v1.2h6.58ZM534.66,134.41v1.55h3.79v-1.55h-3.79ZM534.66,138.31h3.79v-1.58h-3.79v1.58ZM543.42,134.41h-3.91v1.55h3.91v-1.55ZM543.42,138.31v-1.58h-3.91v1.58h3.91Z"/>
      </g>
      <path class="cls-9" d="M538.33,53.32v.88h-6.58v2.07h-1.06v-2.07h-6.46v-.88h6.46v-1.2h-4.79v-5.51h4.79v-1.13h-6.02v-.87h6.02v-1.33l1.37.08c-.02.1-.09.17-.31.2v1.05h6.1v.87h-6.1v1.13h4.97v5.51h-4.97v1.2h6.58ZM526.91,47.41v1.55h3.79v-1.55h-3.79ZM526.91,51.31h3.79v-1.58h-3.79v1.58ZM535.66,47.41h-3.91v1.55h3.91v-1.55ZM535.66,51.31v-1.58h-3.91v1.58h3.91Z"/>
      <polyline class="cls-4" points="166.99 115.58 166.99 223.87 31.47 223.87"/>
      <g>
        <g>
          <rect class="cls-7" x="423.97" y="15.08" width="64" height="27"/>
          <rect class="cls-5" x="423.97" y="15.08" width="64" height="27"/>
        </g>
        <g>
          <path class="cls-9" d="M435.53,25.55l-2.88.69.12-2.81,2.5-.19.06-2.19,2.5.06-.12,2c.88.08,1.38.44,1.5,1.06.08.38-.02.79-.31,1.25-.33.5-.83,1.17-1.5,2l.5.38.69-1.25,1.5.88-.94,1.62.5.44-1,2.06-1.31-1.5-.19,6.12-2.44-.06.19-5.62-1.38,1.56-1.31-2.38,3.31-4.12ZM440.28,28.24l1.06-3.5-1.62.19.12-2.69,5.75-.31c.71-.04,1.21.17,1.5.62.38.58.54,1.54.5,2.88-.04,2.83-.15,5.81-.31,8.94-.04.75-.25,1.25-.62,1.5-.42.29-1,.44-1.75.44-.33,0-.94-.04-1.81-.12l-.69-2.5h2.25l.25-9.31-1.12.06-2.88,11.75-2.56-.62,1.94-7.31Z"/>
          <path class="cls-9" d="M453.65,21.17l2.44,1-3.06,3.69,5.5-.75-1.62-1.81,2.31-1.31,4.25,5-2.19,1.5-1-1.25-10.06,1.19c-.5.04-.88-.17-1.12-.62-.21-.42-.12-.85.25-1.31l.88-1.06,3.31-4.25h.12ZM450.53,29.05l1.62-.19c1.5,0,3.67-.06,6.5-.19h1c.46.04.83.19,1.12.44.46.38.77,1,.94,1.88.08.42.17,1.1.25,2.06l.19,2.44c-3.79,0-6.58.1-8.38.31-1,.12-2.27.31-3.81.56l.56-7.31ZM459.22,33.61l-.25-2.88-5.81.31-.19,2.62,6.25-.06Z"/>
          <path class="cls-9" d="M471.72,21.42c-.21,2.54-.35,4.69-.44,6.44-.04,1.54-.06,3.71-.06,6.5l-2.88.06c.04-2.5.1-4.65.19-6.44.08-1.5.23-3.71.44-6.62l2.75.06Z"/>
          <path class="cls-9" d="M478.78,26.36c.12-.38.23-.77.31-1.19.17-.71.17-1.21,0-1.5-.33-.54-.85-.58-1.56-.12-.62.42-1.1,1.21-1.44,2.38-.29,1.04-.46,1.98-.5,2.81-.04,2.12.44,3.27,1.44,3.44.62.08,1.21-.15,1.75-.69.29-.29.75-.96,1.38-2l1.19,1.25c-.54,1-1.04,1.73-1.5,2.19-1.29,1.29-2.77,1.71-4.44,1.25-.83-.25-1.5-.81-2-1.69s-.77-1.9-.81-3.06c-.08-2.67.73-4.94,2.44-6.81.96-1.04,2.23-1.48,3.81-1.31,1.17.12,2,.62,2.5,1.5.33.58.48,1.27.44,2.06,0,.38-.08.88-.25,1.5h-2.75Z"/>
        </g>
      </g>
      <g>
        <g>
          <rect class="cls-7" x="139.97" y="15.08" width="64" height="27"/>
          <rect class="cls-5" x="139.97" y="15.08" width="64" height="27"/>
        </g>
        <g>
          <path class="cls-9" d="M148.65,23.74l6.19-.56v-.38l-4.44.38.12-1.81c1.96-.08,3.62-.15,5-.19,1.62-.04,3.69-.04,6.19,0v1.38l-4.38.06-.06.38,1.81-.06h2.44c.5,0,.96.12,1.38.38.42.25.62.54.62.88v2.31l.06.44-2.81-.06.12-2.44h-.75c.33.46.33.83,0,1.12-.21.21-.48.33-.81.38-.38.04-.71,0-1-.12-.46-.25-.54-.71-.25-1.38h-.81l-.12,3.69-2.69.19.31-3.81-1.19.12c.5.38.6.77.31,1.19-.21.33-.52.54-.94.62-.29.04-.56,0-.81-.12-.33-.17-.5-.42-.5-.75,0-.21.1-.46.31-.75l-.62.06-.19,2.56-2.81.25.31-3.94ZM149.21,28.99l4.81-.44c.21,0,.46.04.75.12.38.12.62.29.75.5.12.21.17.6.12,1.19l-.06,1-4.38.38v.38l3.88-.31v1.5l-3.88.44v.19l3.81-.31-.06,1.75-3.75.25v.62l-2.56.06.56-7.31ZM151.34,27.49c.08-.46.46-.75,1.12-.88.79-.12,1.27.06,1.44.56.21.71-.15,1.17-1.06,1.38-.33.08-.67.04-1-.12-.42-.21-.58-.52-.5-.94ZM151.53,30.49v-.06l1.5-.12v-.56l-1.62.12v.56l.12.06ZM156.28,30.05l4.12-.19.06-.5-4.19.25v-1.19l5.13-.19c.67-.04,1.1.08,1.31.38.17.21.25.5.25.88v1.56h-1.31l-5.44.25.06-1.25ZM156.28,31.61l4.69-.38c.79-.08,1.29.02,1.5.31.17.21.14.48-.06.81-.08.17-.56.71-1.44,1.62l2.44.69-.94,1.62-2.88-.88-.81.94-2.06-.69.75-.75-1.06-.25.81-1.56,1.62.38.62-.62-3.25.25.06-1.5ZM157.78,27.3c0-.33.15-.6.44-.81.25-.17.54-.27.88-.31.79-.04,1.23.19,1.31.69.08.38,0,.69-.25.94-.25.21-.54.35-.88.44-.38.08-.71.04-1-.12-.33-.21-.5-.48-.5-.81Z"/>
          <path class="cls-9" d="M167.22,33.24v-1.38l-2.62.38-.06-.06.12-2.38,2.56-.06v-.81l-2.88.31.38-7.69.12-.31,4.88-.12c.75,0,1.33.1,1.75.31.54.29.81.79.81,1.5v5.69h-.25l-2.56.06v1l2.56-.06-.06,1.75-2.5.25v1.25l2.44-.38-.06,1.81-5.56,1.56-1.31.38-.75-2.56,3-.44ZM167.34,27.05l.06-1h-.69l-.06,1h.69ZM167.47,24.11l.06-1.19-.69.06-.06,1.12h.69ZM170.34,27.05v-1.19h-.88v1.19h.88ZM170.34,24.11v-1.31h-.69l-.06,1.31h.75ZM173.15,36.24l-.88-2.69,2,.06.06-4.12-1.94.25.12-2.62,3.56-.06-3.06-2.25v-.12l1.56-1.25.94.56.75-1h-.44l-3.19.56.06-2.5,5.5-.06c.62,0,1,.25,1.12.75.08.29.06.58-.06.88-.12.38-.44.88-.94,1.5l-.94,1.19.75.5-1.25,1.25h1.56c.62.04,1,.38,1.12,1,.04.29.06.58.06.88-.04.79-.17,1.67-.38,2.62l-2.31-.44.44-1.88h-.5l-.12,4.88c-.04.92-.27,1.52-.69,1.81-.17.12-.44.21-.81.25-.29.04-1,.06-2.12.06Z"/>
          <path class="cls-9" d="M187.72,21.42c-.21,2.54-.35,4.69-.44,6.44-.04,1.54-.06,3.71-.06,6.5l-2.88.06c.04-2.5.1-4.65.19-6.44.08-1.5.23-3.71.44-6.62l2.75.06Z"/>
          <path class="cls-9" d="M194.78,26.36c.12-.38.23-.77.31-1.19.17-.71.17-1.21,0-1.5-.33-.54-.85-.58-1.56-.12-.62.42-1.1,1.21-1.44,2.38-.29,1.04-.46,1.98-.5,2.81-.04,2.12.44,3.27,1.44,3.44.62.08,1.21-.15,1.75-.69.29-.29.75-.96,1.38-2l1.19,1.25c-.54,1-1.04,1.73-1.5,2.19-1.29,1.29-2.77,1.71-4.44,1.25-.83-.25-1.5-.81-2-1.69s-.77-1.9-.81-3.06c-.08-2.67.73-4.94,2.44-6.81.96-1.04,2.23-1.48,3.81-1.31,1.17.12,2,.62,2.5,1.5.33.58.48,1.27.44,2.06,0,.38-.08.88-.25,1.5h-2.75Z"/>
        </g>
      </g>
      <g>
        <g>
          <rect class="cls-7" x="423.97" y="87.08" width="64" height="27"/>
          <rect class="cls-5" x="423.97" y="87.08" width="64" height="27"/>
        </g>
        <g>
          <path class="cls-9" d="M432.22,96.86l.19-2.44,6.12-.25-.06-1h3l-.06.94,6.12.12.06,1.94-6.31-.06-.06,1,2.94.06c.67,0,1.21.12,1.62.38.62.38.96.92,1,1.62l.25,3.94h-3.56l4.06,2.81-1.62,2.19-.19-.12-4.62-3.62.12,3.88-2.81.06v-3.44l-3.94,3.5-.06-.06-2.06-1.75-.06-.06,3.75-2.94-3.25.38.69-5.69.19-.75,4.81-.31.06-.94h-.31l-6,.62ZM438.4,101.61v-.62l-2.25.19v.56l2.25-.12ZM438.4,99.55l.06-.75-2.19.19-.06.62,2.19-.06ZM443.78,99.49v-.81h-2.62v.88l2.62-.06ZM443.84,101.55l-.06-.69h-2.62v.75l2.69-.06Z"/>
          <path class="cls-9" d="M448.47,94.92l6.19-.19-.06-1.56,2.81.06-.19,1.5h6.19l.06,1.88-8.31.06-5.5.5-1.12.12-.06-2.38ZM451.78,102.99l2.19,1.25-2.94,3.38-.31.38-2.25-1.81,3.31-3.19ZM450.72,97.8l4.62-.38h3.06c.71,0,1.19.02,1.44.06.46.08.81.25,1.06.5.21.21.35.5.44.88.04.08.08.48.12,1.19.04.88.06,1.71.06,2.5l-4.31-.06.19,5.62-2.75.06.06-5.56-4.31.31.31-5.12ZM458.9,100.74l-.12-1.38-5.56.12-.12,1.44,5.81-.19ZM459.59,102.67l2.75,2.19,1.19.94v.06l-2.06,2-3.69-3.56,1.81-1.62Z"/>
          <path class="cls-9" d="M464.53,103.36l1,.06.31,3.5-1.44.12.12-3.69ZM465.47,93.61l6.56-.38v1.88h-1.5l-.06.88.94-.06-.06,1.81h-1.06l-.06.56,1.12-.06.06,1.75-1.31-.06v.56c.71-.04,1.19.1,1.44.44.25.38.4.94.44,1.69l.06,2.12c.04,1.25-.17,2.15-.62,2.69-.25.33-.62.54-1.12.62-.42.08-.92.1-1.5.06l-.69-1.94,1.75.06.06-2.31c-.25.17-.48.25-.69.25-.21.04-.46-.08-.75-.38l.81,1.69-1.44.62-.81-2.88,1-.25.38.81c-.12-.46-.06-.83.19-1.12.33-.38.75-.35,1.25.06l-.06-.56-5.31.31.06-1.69.69-6.06.25-1.12ZM466.84,103.3l.75,2.88-1.5.56-.38-3.38,1.12-.06ZM467.97,100.55v-.5l-1.06.06-.06.56,1.12-.12ZM468.03,98.49l.06-.62-1.06.06-.06.62,1.06-.06ZM468.22,96.11l.06-.88-.88.06-.12.88.94-.06ZM472.97,93.99c1.08-.25,2.08-.44,3-.56.71-.08,1.17-.12,1.38-.12.46.04.83.21,1.12.5.58.54.88,1.1.88,1.69v5.5l-3.06.19,3.19,5.12-1.56,1.75-3.12-4.75-.19-.25.25,5.06-2.69.06c.04-4.04.17-7.25.38-9.62.08-1.25.23-2.77.44-4.56ZM476.97,98.92l-.12-3.5-1.94.19-.25,3.44,2.31-.12ZM475.72,101.24l-1.06.12v.94l1.06-1.06Z"/>
        </g>
      </g>
      <g>
        <g>
          <rect class="cls-7" x="287.89" y="87.07" width="62.93" height="26.55"/>
          <rect class="cls-3" x="287.89" y="87.07" width="62.93" height="26.55"/>
        </g>
        <g>
          <path class="cls-9" d="M300.42,96.2l-3.2.31.18-2.27,5.1-.12.06-1.17h2.52v1.11h4.85l.06,1.84-3.38-.12.98.43,3.07,1.35.43.25-1.23,2.03-2.03-1.04-2.89-1.29.06,2.21h-2.7l.06-2.03-4.98,2.77-1.29-1.78,4.3-2.46ZM298.15,103.57l-1.84.18v-2.15l2.77-.19.06-1.84,2.46.06-.12,1.66,1.91-.12-.06,1.91-1.35.12,1.35.86-1.29,2.03-.68-.49.06,2.27h-2.52l.06-2.09-1.47,1.66-1.29-1.84,1.97-2.03ZM305.22,102.96h-1.41l.12-1.97,2.15.06.06-1.41h2.4l-.12,1.35h2.58v1.97h-2.33l2.52,2.64-1.23,1.72-1.54-1.66v2.21l-2.4-.06v-2.33l-1.78,1.9-1.66-1.47,2.64-2.95Z"/>
          <path class="cls-9" d="M312.04,105.35l1.91-.12.49-7.68-1.17-2.27,7.07-1.54,3.56-.61,1.47,1.9-6.39,1.29-1.78.43-.12,1.41,9.4-.25.06,2.15-2.95.06v4.85l3.2-.06.06,2.21-7.37.19c-1.88.08-4.26.29-7.13.61l-.31-2.58ZM320.82,105.05l-.06-4.79-3.81.31-.31,4.61,4.18-.12Z"/>
          <path class="cls-9" d="M327.77,103.08l.98.06.31,3.44-1.41.12.12-3.62ZM328.69,93.49l6.45-.37v1.84h-1.47l-.06.86.92-.06-.06,1.78h-1.04l-.06.55,1.11-.06.06,1.72-1.29-.06v.55c.7-.04,1.17.1,1.41.43.25.37.39.92.43,1.66l.06,2.09c.04,1.23-.16,2.11-.61,2.64-.25.33-.61.53-1.11.61-.41.08-.9.1-1.47.06l-.68-1.91,1.72.06.06-2.27c-.25.16-.47.25-.68.25-.21.04-.45-.08-.74-.37l.8,1.66-1.41.61-.8-2.83.98-.25.37.8c-.12-.45-.06-.82.18-1.11.33-.37.74-.35,1.23.06l-.06-.55-5.22.31.06-1.66.68-5.96.25-1.11ZM330.04,103.02l.74,2.83-1.48.55-.37-3.32,1.11-.06ZM331.15,100.31v-.49l-1.04.06-.06.55,1.11-.12ZM331.21,98.29l.06-.62-1.04.06-.06.61,1.04-.06ZM331.39,95.95l.06-.86-.86.06-.12.86.92-.06ZM336.06,93.86c1.07-.25,2.05-.43,2.95-.55.7-.08,1.15-.12,1.35-.12.45.04.82.21,1.11.49.57.53.86,1.09.86,1.66v5.41l-3.01.18,3.13,5.04-1.54,1.72-3.07-4.67-.18-.25.25,4.98-2.64.06c.04-3.97.16-7.13.37-9.46.08-1.23.22-2.72.43-4.49ZM340,98.72l-.12-3.44-1.91.18-.25,3.38,2.27-.12ZM338.77,100.99l-1.04.12v.92l1.04-1.04Z"/>
        </g>
      </g>
      <g>
        <g>
          <path class="cls-9" d="M193.1,189.6c-.05.11-.17.2-.4.21-.62,3.36-1.91,6.91-3.72,8.98-.28-.2-.7-.38-1.04-.5,1.74-1.91,3.1-5.46,3.6-8.98l1.57.29ZM200.91,198.71c-.73-2.45-2.53-6.43-4.13-9.02l1.01-.43c1.63,2.51,3.44,6.46,4.25,9.05l-1.13.41ZM198.66,187.44c.71.57,1.47,1.44,1.89,2.07l-.59.39c-.43-.63-1.24-1.54-1.89-2.07l.59-.39ZM200.71,186.71c.7.59,1.47,1.43,1.91,2.06l-.61.41c-.43-.63-1.24-1.53-1.89-2.06l.59-.41Z"/>
          <path class="cls-9" d="M214.73,188.86c-.03.07-.11.13-.2.15-.84,1.78-1.83,3.32-3.1,4.82,1.69,1.22,4.24,3.31,5.68,4.75l-.95.74c-1.37-1.43-3.86-3.56-5.45-4.71-1.37,1.5-3.72,3.54-5.97,4.71-.17-.21-.54-.56-.81-.76,4.3-2.13,7.7-6.11,9.09-9.15h-7.62v-.95h8.22l.2-.07.9.46Z"/>
        </g>
        <g>
          <path class="cls-10" d="M223.56,151.59h-43.03c-1.37,0-2.6.89-3.02,2.19l-3.13,9.61c-.3.92-.45,1.89-.45,2.87v13.68h7.16c0-.07-.01-.15-.01-.22,0-3.8,3.09-6.88,6.88-6.88s6.88,3.09,6.88,6.88c0,.08,0,.15-.01.22h16.99c0-.07-.01-.15-.01-.22,0-3.8,3.09-6.88,6.88-6.88s6.88,3.09,6.88,6.88c0,.08,0,.15-.01.22h6.08v-20.28c0-4.46-3.62-8.08-8.08-8.08ZM185.02,170.41c0,.45-.37.82-.82.82h-4.55c-.45,0-.82-.37-.82-.82v-4.2c0-.54.08-1.07.25-1.58l2.66-8.2c.11-.34.43-.57.78-.57h1.68c.45,0,.82.37.82.82v13.72h0ZM199.54,164.08c0,.23-.18.41-.41.41h-9.42c-.23,0-.41-.18-.41-.41v-7.8c0-.23.18-.41.41-.41h9.42c.23,0,.41.18.41.41v7.8ZM213.57,164.08c0,.23-.18.41-.41.41h-9.77c-.23,0-.41-.18-.41-.41v-7.8c0-.23.18-.41.41-.41h9.77c.23,0,.41.18.41.41v7.8h0ZM226.73,163.67c0,.45-.37.82-.82.82h-7.54c-.45,0-.82-.37-.82-.82v-6.98c0-.45.37-.82.82-.82h4.43c2.17,0,3.93,1.77,3.93,3.93v3.87Z"/>
          <path class="cls-10" d="M187.95,174.65c-2.8,0-5.08,2.27-5.08,5.08s2.27,5.08,5.08,5.08,5.08-2.27,5.08-5.08-2.27-5.08-5.08-5.08ZM187.95,181.85c-1.17,0-2.12-.95-2.12-2.12s.95-2.12,2.12-2.12,2.12.95,2.12,2.12c0,1.17-.95,2.12-2.12,2.12Z"/>
          <path class="cls-10" d="M218.69,174.65c-2.8,0-5.08,2.27-5.08,5.08s2.27,5.08,5.08,5.08,5.08-2.27,5.08-5.08c0-2.81-2.27-5.08-5.08-5.08ZM218.69,181.85c-1.17,0-2.12-.95-2.12-2.12s.95-2.12,2.12-2.12,2.12.95,2.12,2.12c0,1.17-.95,2.12-2.12,2.12Z"/>
        </g>
      </g>
      <path class="cls-10" d="M548.87,87.11h-8.39l.46-.34,7.84-5.87-8.61-6.46-8.61,6.46,8.3,6.22h-20.56l.46-.34,7.84-5.87-8.61-6.46-8.61,6.46,8.3,6.22h-8.39c-5.27,0-9.55,4.28-9.55,9.55v23.21c0,.95.77,1.71,1.71,1.71h5.25c-.02.17-.05.34-.05.51,0,2.04,1.65,3.69,3.69,3.69s3.69-1.65,3.69-3.69c0-.18-.03-.35-.05-.51h3.9c-.02.17-.05.34-.05.51,0,2.04,1.65,3.69,3.69,3.69s3.69-1.65,3.69-3.69c0-.18-.03-.35-.05-.51h6.89c-.02.17-.05.34-.05.51,0,2.04,1.65,3.69,3.69,3.69s3.69-1.65,3.69-3.69c0-.18-.03-.35-.05-.51h3.9c-.02.17-.05.34-.05.51,0,2.04,1.65,3.69,3.69,3.69s3.69-1.65,3.69-3.69c0-.18-.03-.35-.05-.51h5.25c.95,0,1.71-.77,1.71-1.71v-23.21c0-5.27-4.28-9.55-9.55-9.55ZM514.67,80.89l4.29-3.22,4.29,3.22-4.29,3.22-4.29-3.22ZM523.05,106.89h-9.07v-7.78h9.07v7.78ZM535.87,80.89l4.29-3.22,4.29,3.22-4.29,3.22-4.29-3.22ZM545.14,106.89h-9.07v-7.78h9.07v7.78Z"/>
      <g>
        <g>
          <path class="cls-9" d="M73.57,153.05c-.02.07-.09.13-.19.15-.57,1.74-1.35,3.33-2.28,4.64.67.35,1.43.79,2,1.16l-.65.93c-.56-.39-1.35-.86-2-1.22-1.43,1.79-3.26,3.24-5.6,4.26-.17-.24-.57-.57-.85-.73,2.27-.95,4.08-2.37,5.49-4.03-1.15-.57-2.28-1.06-3.43-1.46l.59-.79c1.13.36,2.3.84,3.49,1.42.81-1.15,1.44-2.37,1.88-3.71h-5.26c-.95,1.43-2.22,2.84-3.58,3.85-.2-.17-.62-.48-.88-.63,2.03-1.4,3.96-3.92,4.89-6.32l1.47.31c-.06.15-.22.2-.42.18-.22.46-.57,1.15-.87,1.67h5.15l.22-.05.84.38Z"/>
          <path class="cls-9" d="M89.36,153.34c-.06.07-.14.14-.23.2-1.63,4.54-4.17,7.45-8.46,9.41-.19-.24-.48-.56-.79-.77,4.07-1.78,6.58-4.58,7.87-8.29h-5.54c-.9,1.26-2.09,2.48-3.48,3.46-.22-.2-.57-.46-.88-.64,2.11-1.47,3.9-3.61,4.95-6.08l1.47.38c-.06.14-.25.18-.45.18-.31.62-.64,1.2-.99,1.76h5.46l.19-.08.88.48Z"/>
          <path class="cls-9" d="M93.52,154.7c1.4.28,3.13.81,4.17,1.26l-.47.88c-1.02-.45-2.81-1.01-4.17-1.29l.47-.85ZM94.45,161.55c5.04-1.53,8.49-3.95,10.55-8.15.23.18.71.48.95.62-2.08,4.16-5.7,6.75-10.44,8.28.03.12-.05.29-.19.35l-.87-1.09ZM95.22,151.23c1.4.34,3.1.9,4.16,1.37l-.51.85c-1.1-.5-2.72-1.06-4.11-1.41l.47-.81Z"/>
          <path class="cls-9" d="M108.41,156.04h12.96v.99h-12.37c-.09.14-.29.24-.5.27l-.09-1.26Z"/>
        </g>
        <g>
          <path class="cls-10" d="M118.39,127.32h-2.49c-1.19,0-2.63-.86-3.2-1.9l-4.1-7.56c-.57-1.05-2.01-1.9-3.2-1.9h-19.26c-1.19,0-2.76.77-3.49,1.71l-6.12,7.94c-.73.94-2.3,1.72-3.49,1.72h-3.37c-3.76,0-6.07,1.79-6.61,5.4l-.22,3.8c0,1.19.98,2.17,2.17,2.17h5.33c.26,3.04,2.82,5.43,5.93,5.43s5.67-2.39,5.93-5.43h20.99c.26,2.68,2.53,4.78,5.28,4.78s5.02-2.1,5.28-4.78h4.64c1.19,0,2.16-.98,2.16-2.17v-7.04c0-1.19-.98-2.17-2.16-2.17ZM76.27,140.82c-1.47,0-2.65-1.19-2.65-2.65s1.19-2.65,2.65-2.65,2.65,1.19,2.65,2.65-1.19,2.65-2.65,2.65ZM95.65,127.22h-15.66l.81-1.06,5-6.48c.34-.44,1.29-.91,1.85-.91h8v8.45ZM98.25,127.22v-8.45h6.07c.45,0,1.19.44,1.41.84l3.9,7.61h-11.38ZM108.47,140.82c-1.47,0-2.65-1.19-2.65-2.65s1.19-2.65,2.65-2.65,2.65,1.19,2.65,2.65-1.19,2.65-2.65,2.65Z"/>
          <path class="cls-10" d="M88.3,111.61c0-.7.57-1.27,1.27-1.27h11.86c.7,0,1.27.57,1.27,1.27v3.44h1.23v-3.44c0-1.38-1.12-2.5-2.5-2.5h-11.86c-1.38,0-2.5,1.12-2.5,2.5v3.44h1.23v-3.44h0Z"/>
          <path class="cls-10" d="M90.93,114.66h.62s.05-.02.05-.05v-2.51s0-.03.03-.03h.84s.05-.02.05-.05v-.52s-.02-.05-.05-.05h-2.46s-.05.02-.05.05v.52s.02.05.05.05h.84s.03,0,.03.03v2.51s.02.05.05.05Z"/>
          <path class="cls-10" d="M93.89,111.46s-.05.02-.06.05l-1.15,3.11s0,.05.03.05h.64s.05-.01.06-.05l.19-.56h1.17l.19.56s.03.05.07.05h.64s.04-.02.04-.05l-1.13-3.11s-.03-.05-.06-.05h-.62ZM94.58,113.46h-.77l.38-1.12h.01l.38,1.12Z"/>
          <path class="cls-10" d="M96.15,114.66h.68s.06-.01.08-.05l.6-.98h.01l.59.98s.04.05.08.05h.68s.04-.03.03-.06l-1-1.6.93-1.5s0-.06-.03-.06h-.68s-.06.01-.08.05l-.53.87h-.01l-.53-.87s-.04-.05-.08-.05h-.68s-.04.03-.03.06l.93,1.5-1,1.6s0,.06.03.06Z"/>
          <path class="cls-10" d="M99.74,111.46h.63s.05.02.05.05v3.11s-.02.05-.05.05h-.62s-.05-.02-.05-.05v-3.11s.02-.05.05-.05Z"/>
        </g>
      </g>
      <g>
        <path class="cls-10" d="M553.34,21.02c-.02-.07-.03-.15-.05-.22-.63-2.54-2.17-4.85-4.33-6.72-2.23-1.95-5.15-3.44-8.48-4.26-1.89-.47-3.91-.73-6.02-.73s-4.12.26-6.02.73c-4.29,1.06-7.9,3.23-10.24,6.06-1.23,1.47-2.1,3.13-2.56,4.89h-.36c-.49,0-17.07,1.29-14.27,13.51h7.73c0-.13-.01-.26-.01-.39,0-.39.04-.77.09-1.11.54-3.05,3.18-5.27,6.29-5.27s5.75,2.22,6.28,5.25c.07.36.1.74.1,1.13,0,.12,0,.24-.01.35,0,0,0,0,0,.01h0s0,.02,0,.03h16.24c0-.13-.01-.26-.01-.39,0-.39.04-.77.09-1.11.54-3.05,3.18-5.27,6.29-5.27s5.75,2.22,6.28,5.24c.07.36.1.75.1,1.14,0,.12,0,.24-.01.35,0,0,0,0,0,.01h0s0,.02,0,.03h6.39c.86,0,1.56-.7,1.56-1.56.03-8.31.16-9.81-5.07-11.7ZM518.71,20.76c.37-1.06.95-2.06,1.74-3.01,1.98-2.39,5.07-4.2,8.7-5.1,1.71-.42,3.49-.64,5.31-.64,1.5,0,2.96.15,4.38.45.1.02.2.04.3.06l-3.36,8.25h-17.09ZM538.95,20.76l3.03-7.43c1.93.72,3.66,1.72,5.06,2.94,1.48,1.28,2.54,2.77,3.12,4.34.02.05.04.11.06.16h-11.27Z"/>
        <path class="cls-10" d="M515.12,29.69c-2.07,0-3.78,1.5-4.12,3.46-.04.23-.07.48-.07.73,0,.13,0,.26.02.39.2,2.12,1.99,3.79,4.17,3.79s3.97-1.66,4.17-3.79c.01-.13.02-.26.02-.39,0-.25-.02-.5-.07-.73-.34-1.96-2.06-3.46-4.12-3.46Z"/>
        <path class="cls-10" d="M544.09,29.69c-2.07,0-3.78,1.5-4.12,3.46-.04.23-.07.48-.07.73,0,.13,0,.26.02.39.2,2.12,1.99,3.79,4.17,3.79s3.97-1.66,4.17-3.79c.01-.13.02-.26.02-.39,0-.25-.02-.5-.07-.73-.34-1.96-2.06-3.46-4.12-3.46Z"/>
      </g>
      <g>
        <g>
          <rect class="cls-7" x="112.97" y="211.08" width="108" height="27"/>
          <rect class="cls-2" x="112.97" y="211.08" width="108" height="27"/>
        </g>
        <g>
          <path class="cls-9" d="M120.87,222.67l.06-2,1.56.06.06-3.75,2.38-.06-.12,3.69h.62l.25-3.25,7.56-.12c1.21,0,1.81.58,1.81,1.75l.06,5.62.06,5.25h.88l-.19,2.38c-.46.04-.81.06-1.06.06-.38.04-.73.02-1.06-.06-.33-.08-.58-.31-.75-.69-.12-.29-.19-.54-.19-.75l-1.69.31-.12-.94-3.5,1.06v-2.19l1.56-.31.12-1.75-1.69.31.38-5.44h1.69v-.5l-1.5.38-.38-.88-.38,7.56-.12,3.75-2.31-.38.25-6.12-.25.44-.25-.38-.12,6.44-2.44.06.12-5.56-.75,1.44-.62-2.88,1.38-2.62-1.31.06ZM125.25,223.24l.06-.94-.62.06v.31l.56.56ZM132,219.11l.81.94v-1.06h-2c-.58.04-1.58.15-3,.31l-.06.62,4.25-.81ZM129.06,225.3h.19l.19-1.88h-.25l-.12,1.88ZM131,228.36l-.06-1.25,1.62-.25.25,3.44-.06-9.69-1.56.38-.06.81h.75c.21,0,.4.12.56.38.12.21.19.52.19.94.04.92.04,2.1,0,3.56l-1.81.12v1.56h.19ZM131.18,225.3l.06-1.88h-.25l-.12,1.88h.31Z"/>
          <path class="cls-9" d="M139.81,221.74l2.19.94-.94,1.62,6.12-.06-.06,2.12h-3.44l1.12.31-2,5.12-2.31-.81,2.06-4.5-2.75.12-.81,1.81-2.19-.94,3-5.75Z"/>
          <path class="cls-9" d="M148.06,229.67l1.94-.12.5-7.81-1.19-2.31,7.19-1.56,3.62-.62,1.5,1.94-6.5,1.31-1.81.44-.12,1.44,9.56-.25.06,2.19-3,.06v4.94l3.25-.06.06,2.25-7.5.19c-1.92.08-4.33.29-7.25.62l-.31-2.62ZM157,229.36l-.06-4.88-3.88.31-.31,4.69,4.25-.12Z"/>
          <path class="cls-9" d="M167.75,217.92l2.75.81c-1.58,4.17-2.85,8.23-3.81,12.19l-2.81-.94,3.88-12.06ZM173.87,220.99l4,8.5-2.75,1.19c-.33-.83-.94-2.27-1.81-4.31-.62-1.42-1.33-2.85-2.12-4.31l2.69-1.06ZM174.56,218.11l1.25,2.75-1.5.56-1.19-2.88,1.44-.44ZM176.5,217.67l1.25,2.56-1.5.44-1.12-2.69,1.38-.31Z"/>
          <path class="cls-9" d="M186.68,220.55l-7.31,1.06-.25-3.12,5.5-.5c.79-.08,1.52-.15,2.19-.19.88-.04,1.58.04,2.12.25.96.38,1.44.98,1.44,1.81,0,.5-.15,1.02-.44,1.56-.21.42-.6.98-1.19,1.69l-1.88,2.31,5,4.06-2.44,2.12-4.62-3.88-3.81,3.94-2.44-2,2.69-2.81c.92-1,1.75-1.9,2.5-2.69,1.17-1.25,2.15-2.46,2.94-3.62Z"/>
          <path class="cls-9" d="M195.87,216.99l1.94,1.12-.25.31,3.75-.19.12-1.25h2.62l-.25,1.25h4.06v1.38l-5.75.19-4.81.44.06-1.5-.5.94-.31,8.62-.06,3.88h-2.31l.19-7.94-.69,1.38h-.12l-.94-2.5,3.25-6.12ZM197,224.42l6.69-.44,3.06-.06c.46,0,.77.15.94.44.17.33.25.75.25,1.25,0,.21-.02.69-.06,1.44l-2.06.12v-1.56h-1.62l-5.12.38-.06,1.31-2.25.19.25-3.06ZM198.87,220.24l4.38-.19h1.31c.46.04.85.19,1.19.44.42.33.67.81.75,1.44.04.25.08.77.12,1.56l-.12.12h-2.44l-5.62.38.44-3.75ZM199.31,226.36l6.25-.12.06,1.44-1.62.06v2.94c.04.5-.21.9-.75,1.19-.54.29-1.44.38-2.69.25l-.69-2,1.81-.06v-2.12l-2.5.31.12-1.88ZM204.18,222.24v-.88l-2.94.19-.06.81,3-.12Z"/>
        </g>
      </g>
      <line class="cls-6" x1="167.47" y1="100.58" x2="31.08" y2="100.58"/>
      <g>
        <g>
          <rect class="cls-7" x="132.97" y="87.08" width="64" height="27"/>
          <rect class="cls-5" x="132.97" y="87.08" width="64" height="27"/>
        </g>
        <g>
          <path class="cls-9" d="M147.4,105.61v-1.38l-4.38.25.12-2.31,4.31-.06.06-.94-4.69.31.75-8.19,7.94-.12c1,0,1.77.25,2.31.75.71.67,1.06,1.62,1.06,2.88l.06,4.25-4.94.06v1l4.56.06v2l-4.56-.06v1.44h6.56v2.12c-3.42,0-6.4.04-8.94.12-1.38.04-3.52.17-6.44.38l.19-2.44,6-.12ZM147.59,99.05l.06-1.19-1.69.12-.06,1.06h1.69ZM147.72,96.17l.06-1.06-1.62.12-.12,1,1.69-.06ZM151.78,96.17l-.06-1.19h-1.5l-.12,1.19h1.69ZM151.9,99.05l-.06-1.31h-1.69l-.06,1.31h1.81Z"/>
          <path class="cls-9" d="M158.47,96.49l2.62-.06-.44,8,2.5-.06.69-11.19h2.69l-.12,11.12h2.75v-7.88l2.69-.06.44,10.25-14.5.5.69-10.62Z"/>
          <path class="cls-9" d="M173.53,103.36l1,.06.31,3.5-1.44.12.12-3.69ZM174.47,93.61l6.56-.38v1.88h-1.5l-.06.88.94-.06-.06,1.81h-1.06l-.06.56,1.12-.06.06,1.75-1.31-.06v.56c.71-.04,1.19.1,1.44.44.25.38.4.94.44,1.69l.06,2.12c.04,1.25-.17,2.15-.62,2.69-.25.33-.62.54-1.12.62-.42.08-.92.1-1.5.06l-.69-1.94,1.75.06.06-2.31c-.25.17-.48.25-.69.25-.21.04-.46-.08-.75-.38l.81,1.69-1.44.62-.81-2.88,1-.25.38.81c-.12-.46-.06-.83.19-1.12.33-.38.75-.35,1.25.06l-.06-.56-5.31.31.06-1.69.69-6.06.25-1.12ZM175.84,103.3l.75,2.88-1.5.56-.38-3.38,1.12-.06ZM176.97,100.55v-.5l-1.06.06-.06.56,1.12-.12ZM177.03,98.49l.06-.62-1.06.06-.06.62,1.06-.06ZM177.22,96.11l.06-.88-.88.06-.12.88.94-.06ZM181.97,93.99c1.08-.25,2.08-.44,3-.56.71-.08,1.17-.12,1.38-.12.46.04.83.21,1.12.5.58.54.88,1.1.88,1.69v5.5l-3.06.19,3.19,5.12-1.56,1.75-3.12-4.75-.19-.25.25,5.06-2.69.06c.04-4.04.17-7.25.38-9.62.08-1.25.23-2.77.44-4.56ZM185.97,98.92l-.12-3.5-1.94.19-.25,3.44,2.31-.12ZM184.72,101.24l-1.06.12v.94l1.06-1.06Z"/>
        </g>
      </g>
    </g>
  </g>
</svg>